<?xml version="1.0" encoding="UTF-8" standalone="no"?>
<!DOCTYPE svg PUBLIC "-//W3C//DTD SVG 1.1//EN"
 "http://www.w3.org/Graphics/SVG/1.1/DTD/svg11.dtd">
<!-- Generated by graphviz version 5.0.0 (20220707.1540)
 -->
<!-- Title: dependencies Pages: 1 -->
<svg width="396pt" height="247pt"
 viewBox="0.00 0.00 396.00 246.80" xmlns="http://www.w3.org/2000/svg" xmlns:xlink="http://www.w3.org/1999/xlink">
<g id="graph0" class="graph" transform="scale(1 1) rotate(0) translate(4 242.8)">
<title>dependencies</title>
<polygon fill="white" stroke="transparent" points="-4,4 -4,-242.8 392,-242.8 392,4 -4,4"/>
<text text-anchor="middle" x="194" y="-8.2" font-family="sans-serif" font-size="14.00">dependencies</text>
<g id="clust1" class="cluster">
<title>cluster_PublicComponentsModule</title>
<polygon fill="none" stroke="black" stroke-dasharray="1,5" points="8,-32.8 8,-230.8 380,-230.8 380,-32.8 8,-32.8"/>
</g>
<g id="clust3" class="cluster">
<title>cluster_PublicComponentsModule_imports</title>
<polygon fill="none" stroke="black" points="20,-40.8 20,-92.8 368,-92.8 368,-40.8 20,-40.8"/>
</g>
<g id="clust4" class="cluster">
<title>cluster_PublicComponentsModule_exports</title>
<polygon fill="none" stroke="black" points="16,-170.8 16,-222.8 372,-222.8 372,-170.8 16,-170.8"/>
</g>
<!-- CloseFormButtonModule -->
<g id="node1" class="node">
<title>CloseFormButtonModule</title>
<polygon fill="#8dd3c7" stroke="black" points="359.9,-84.8 356.9,-88.8 335.9,-88.8 332.9,-84.8 200.1,-84.8 200.1,-48.8 359.9,-48.8 359.9,-84.8"/>
<text text-anchor="middle" x="280" y="-62.6" font-family="Times,serif" font-size="14.00">CloseFormButtonModule</text>
</g>
<!-- PublicComponentsModule -->
<g id="node3" class="node">
<title>PublicComponentsModule</title>
<polygon fill="#8dd3c7" stroke="black" points="189.11,-149.8 186.11,-153.8 165.11,-153.8 162.11,-149.8 22.89,-149.8 22.89,-113.8 189.11,-113.8 189.11,-149.8"/>
<text text-anchor="middle" x="106" y="-127.6" font-family="Times,serif" font-size="14.00">PublicComponentsModule</text>
</g>
<!-- CloseFormButtonModule&#45;&gt;PublicComponentsModule -->
<g id="edge1" class="edge">
<title>CloseFormButtonModule&#45;&gt;PublicComponentsModule</title>
<path fill="none" stroke="black" d="M280.12,-84.91C280.12,-104.14 280.12,-131.8 280.12,-131.8 280.12,-131.8 199.24,-131.8 199.24,-131.8"/>
<polygon fill="black" stroke="black" points="199.24,-128.3 189.24,-131.8 199.24,-135.3 199.24,-128.3"/>
</g>
<!-- EasygardenLogoModule -->
<g id="node2" class="node">
<title>EasygardenLogoModule</title>
<polygon fill="#8dd3c7" stroke="black" points="182.41,-84.8 179.41,-88.8 158.41,-88.8 155.41,-84.8 27.59,-84.8 27.59,-48.8 182.41,-48.8 182.41,-84.8"/>
<text text-anchor="middle" x="105" y="-62.6" font-family="Times,serif" font-size="14.00">EasygardenLogoModule</text>
</g>
<!-- EasygardenLogoModule&#45;&gt;PublicComponentsModule -->
<g id="edge2" class="edge">
<title>EasygardenLogoModule&#45;&gt;PublicComponentsModule</title>
<path fill="none" stroke="black" d="M105,-84.91C105,-84.91 105,-103.79 105,-103.79"/>
<polygon fill="black" stroke="black" points="101.5,-103.79 105,-113.79 108.5,-103.79 101.5,-103.79"/>
</g>
<!-- CloseFormButtonModule  -->
<g id="node4" class="node">
<title>CloseFormButtonModule </title>
<polygon fill="#fb8072" stroke="black" points="363.9,-214.8 200.1,-214.8 200.1,-178.8 363.9,-178.8 363.9,-214.8"/>
<text text-anchor="middle" x="282" y="-192.6" font-family="Times,serif" font-size="14.00">CloseFormButtonModule </text>
</g>
<!-- PublicComponentsModule&#45;&gt;CloseFormButtonModule  -->
<g id="edge3" class="edge">
<title>PublicComponentsModule&#45;&gt;CloseFormButtonModule </title>
<path fill="none" stroke="black" stroke-dasharray="5,2" d="M185.5,-149.91C185.5,-169.14 185.5,-196.8 185.5,-196.8 185.5,-196.8 190.16,-196.8 190.16,-196.8"/>
<polygon fill="black" stroke="black" points="190.16,-200.3 200.16,-196.8 190.16,-193.3 190.16,-200.3"/>
</g>
<!-- EasygardenLogoModule  -->
<g id="node5" class="node">
<title>EasygardenLogoModule </title>
<polygon fill="#fb8072" stroke="black" points="181.91,-214.8 24.09,-214.8 24.09,-178.8 181.91,-178.8 181.91,-214.8"/>
<text text-anchor="middle" x="103" y="-192.6" font-family="Times,serif" font-size="14.00">EasygardenLogoModule </text>
</g>
<!-- PublicComponentsModule&#45;&gt;EasygardenLogoModule  -->
<g id="edge4" class="edge">
<title>PublicComponentsModule&#45;&gt;EasygardenLogoModule </title>
<path fill="none" stroke="black" stroke-dasharray="5,2" d="M103,-149.91C103,-149.91 103,-168.79 103,-168.79"/>
<polygon fill="black" stroke="black" points="99.5,-168.79 103,-178.79 106.5,-168.79 99.5,-168.79"/>
</g>
</g>
</svg>
