<?xml version="1.0" encoding="UTF-8" standalone="no"?>
<!DOCTYPE svg PUBLIC "-//W3C//DTD SVG 1.1//EN"
 "http://www.w3.org/Graphics/SVG/1.1/DTD/svg11.dtd">
<!-- Generated by graphviz version 3.0.0 (20220226.1711)
 -->
<!-- Title: dependencies Pages: 1 -->
<svg width="511pt" height="174pt"
 viewBox="0.00 0.00 511.00 173.80" xmlns="http://www.w3.org/2000/svg" xmlns:xlink="http://www.w3.org/1999/xlink">
<g id="graph0" class="graph" transform="scale(1 1) rotate(0) translate(4 169.8)">
<title>dependencies</title>
<polygon fill="white" stroke="transparent" points="-4,4 -4,-169.8 507,-169.8 507,4 -4,4"/>
<text text-anchor="middle" x="251.5" y="-8.2" font-family="sans-serif" font-size="14.00">dependencies</text>
<g id="clust1" class="cluster">
<title>cluster_EasygardenModule</title>
<polygon fill="none" stroke="black" stroke-dasharray="1,5" points="8,-32.8 8,-157.8 495,-157.8 495,-32.8 8,-32.8"/>
</g>
<g id="clust2" class="cluster">
<title>cluster_EasygardenModule_declarations</title>
<polygon fill="none" stroke="black" points="210,-40.8 210,-92.8 487,-92.8 487,-40.8 210,-40.8"/>
</g>
<g id="clust5" class="cluster">
<title>cluster_EasygardenModule_imports</title>
<polygon fill="none" stroke="black" points="16,-40.8 16,-92.8 202,-92.8 202,-40.8 16,-40.8"/>
</g>
<!-- LayoutComponent -->
<g id="node1" class="node">
<title>LayoutComponent</title>
<polygon fill="#ffffb3" stroke="black" points="479.49,-84.8 358.51,-84.8 358.51,-48.8 479.49,-48.8 479.49,-84.8"/>
<text text-anchor="middle" x="419" y="-62.6" font-family="Times,serif" font-size="14.00">LayoutComponent</text>
</g>
<!-- EasygardenModule -->
<g id="node3" class="node">
<title>EasygardenModule</title>
<polygon fill="#8dd3c7" stroke="black" points="341.36,-149.8 338.36,-153.8 317.36,-153.8 314.36,-149.8 216.64,-149.8 216.64,-113.8 341.36,-113.8 341.36,-149.8"/>
<text text-anchor="middle" x="279" y="-127.6" font-family="Times,serif" font-size="14.00">EasygardenModule</text>
</g>
<!-- LayoutComponent&#45;&gt;EasygardenModule -->
<g id="edge1" class="edge">
<title>LayoutComponent&#45;&gt;EasygardenModule</title>
<path fill="none" stroke="black" d="M419,-84.91C419,-104.14 419,-131.8 419,-131.8 419,-131.8 351.63,-131.8 351.63,-131.8"/>
<polygon fill="black" stroke="black" points="351.63,-128.3 341.63,-131.8 351.63,-135.3 351.63,-128.3"/>
</g>
<!-- NavbarComponent -->
<g id="node2" class="node">
<title>NavbarComponent</title>
<polygon fill="#ffffb3" stroke="black" points="340.03,-84.8 217.97,-84.8 217.97,-48.8 340.03,-48.8 340.03,-84.8"/>
<text text-anchor="middle" x="279" y="-62.6" font-family="Times,serif" font-size="14.00">NavbarComponent</text>
</g>
<!-- NavbarComponent&#45;&gt;EasygardenModule -->
<g id="edge2" class="edge">
<title>NavbarComponent&#45;&gt;EasygardenModule</title>
<path fill="none" stroke="black" d="M279,-84.91C279,-84.91 279,-103.79 279,-103.79"/>
<polygon fill="black" stroke="black" points="275.5,-103.79 279,-113.79 282.5,-103.79 275.5,-103.79"/>
</g>
<!-- EasygardenRoutingModule -->
<g id="node4" class="node">
<title>EasygardenRoutingModule</title>
<polygon fill="#8dd3c7" stroke="black" points="193.97,-84.8 190.97,-88.8 169.97,-88.8 166.97,-84.8 24.03,-84.8 24.03,-48.8 193.97,-48.8 193.97,-84.8"/>
<text text-anchor="middle" x="109" y="-62.6" font-family="Times,serif" font-size="14.00">EasygardenRoutingModule</text>
</g>
<!-- EasygardenRoutingModule&#45;&gt;EasygardenModule -->
<g id="edge3" class="edge">
<title>EasygardenRoutingModule&#45;&gt;EasygardenModule</title>
<path fill="none" stroke="black" d="M109,-84.91C109,-104.14 109,-131.8 109,-131.8 109,-131.8 206.18,-131.8 206.18,-131.8"/>
<polygon fill="black" stroke="black" points="206.18,-135.3 216.18,-131.8 206.18,-128.3 206.18,-135.3"/>
</g>
</g>
</svg>
