<?xml version="1.0" encoding="UTF-8" standalone="no"?>
<!DOCTYPE svg PUBLIC "-//W3C//DTD SVG 1.1//EN"
 "http://www.w3.org/Graphics/SVG/1.1/DTD/svg11.dtd">
<!-- Generated by graphviz version 5.0.0 (20220707.1540)
 -->
<!-- Title: dependencies Pages: 1 -->
<svg width="1115pt" height="174pt"
 viewBox="0.00 0.00 1115.00 173.80" xmlns="http://www.w3.org/2000/svg" xmlns:xlink="http://www.w3.org/1999/xlink">
<g id="graph0" class="graph" transform="scale(1 1) rotate(0) translate(4 169.8)">
<title>dependencies</title>
<polygon fill="white" stroke="transparent" points="-4,4 -4,-169.8 1111,-169.8 1111,4 -4,4"/>
<text text-anchor="middle" x="553.5" y="-8.2" font-family="sans-serif" font-size="14.00">dependencies</text>
<g id="clust1" class="cluster">
<title>cluster_EasygardenModule</title>
<polygon fill="none" stroke="black" stroke-dasharray="1,5" points="8,-32.8 8,-157.8 1099,-157.8 1099,-32.8 8,-32.8"/>
</g>
<g id="clust5" class="cluster">
<title>cluster_EasygardenModule_imports</title>
<polygon fill="none" stroke="black" points="303,-40.8 303,-92.8 1091,-92.8 1091,-40.8 303,-40.8"/>
</g>
<g id="clust2" class="cluster">
<title>cluster_EasygardenModule_declarations</title>
<polygon fill="none" stroke="black" points="16,-40.8 16,-92.8 295,-92.8 295,-40.8 16,-40.8"/>
</g>
<!-- GardenComponent -->
<g id="node1" class="node">
<title>GardenComponent</title>
<polygon fill="#ffffb3" stroke="black" points="287.03,-84.8 164.97,-84.8 164.97,-48.8 287.03,-48.8 287.03,-84.8"/>
<text text-anchor="middle" x="226" y="-62.6" font-family="Times,serif" font-size="14.00">GardenComponent</text>
</g>
<!-- EasygardenModule -->
<g id="node3" class="node">
<title>EasygardenModule</title>
<polygon fill="#8dd3c7" stroke="black" points="626.36,-149.8 623.36,-153.8 602.36,-153.8 599.36,-149.8 501.64,-149.8 501.64,-113.8 626.36,-113.8 626.36,-149.8"/>
<text text-anchor="middle" x="564" y="-127.6" font-family="Times,serif" font-size="14.00">EasygardenModule</text>
</g>
<!-- GardenComponent&#45;&gt;EasygardenModule -->
<g id="edge1" class="edge">
<title>GardenComponent&#45;&gt;EasygardenModule</title>
<path fill="none" stroke="black" d="M226,-84.91C226,-104.14 226,-131.8 226,-131.8 226,-131.8 491.61,-131.8 491.61,-131.8"/>
<polygon fill="black" stroke="black" points="491.61,-135.3 501.61,-131.8 491.61,-128.3 491.61,-135.3"/>
</g>
<!-- NavbarComponent -->
<g id="node2" class="node">
<title>NavbarComponent</title>
<polygon fill="#ffffb3" stroke="black" points="146.03,-84.8 23.97,-84.8 23.97,-48.8 146.03,-48.8 146.03,-84.8"/>
<text text-anchor="middle" x="85" y="-62.6" font-family="Times,serif" font-size="14.00">NavbarComponent</text>
</g>
<!-- NavbarComponent&#45;&gt;EasygardenModule -->
<g id="edge2" class="edge">
<title>NavbarComponent&#45;&gt;EasygardenModule</title>
<path fill="none" stroke="black" d="M85,-85.09C85,-107.01 85,-140.8 85,-140.8 85,-140.8 491.38,-140.8 491.38,-140.8"/>
<polygon fill="black" stroke="black" points="491.38,-144.3 501.38,-140.8 491.38,-137.3 491.38,-144.3"/>
</g>
<!-- AddEntityModule -->
<g id="node4" class="node">
<title>AddEntityModule</title>
<polygon fill="#8dd3c7" stroke="black" points="1082.88,-84.8 1079.88,-88.8 1058.88,-88.8 1055.88,-84.8 965.12,-84.8 965.12,-48.8 1082.88,-48.8 1082.88,-84.8"/>
<text text-anchor="middle" x="1024" y="-62.6" font-family="Times,serif" font-size="14.00">AddEntityModule</text>
</g>
<!-- AddEntityModule&#45;&gt;EasygardenModule -->
<g id="edge3" class="edge">
<title>AddEntityModule&#45;&gt;EasygardenModule</title>
<path fill="none" stroke="black" d="M1024,-85.09C1024,-107.01 1024,-140.8 1024,-140.8 1024,-140.8 636.52,-140.8 636.52,-140.8"/>
<polygon fill="black" stroke="black" points="636.52,-137.3 626.52,-140.8 636.52,-144.3 636.52,-137.3"/>
</g>
<!-- ConfirmDialogModule -->
<g id="node5" class="node">
<title>ConfirmDialogModule</title>
<polygon fill="#8dd3c7" stroke="black" points="947.6,-84.8 944.6,-88.8 923.6,-88.8 920.6,-84.8 802.4,-84.8 802.4,-48.8 947.6,-48.8 947.6,-84.8"/>
<text text-anchor="middle" x="875" y="-62.6" font-family="Times,serif" font-size="14.00">ConfirmDialogModule</text>
</g>
<!-- ConfirmDialogModule&#45;&gt;EasygardenModule -->
<g id="edge4" class="edge">
<title>ConfirmDialogModule&#45;&gt;EasygardenModule</title>
<path fill="none" stroke="black" d="M875,-84.91C875,-104.14 875,-131.8 875,-131.8 875,-131.8 636.56,-131.8 636.56,-131.8"/>
<polygon fill="black" stroke="black" points="636.56,-128.3 626.56,-131.8 636.56,-135.3 636.56,-128.3"/>
</g>
<!-- DirectivesModule -->
<g id="node6" class="node">
<title>DirectivesModule</title>
<polygon fill="#8dd3c7" stroke="black" points="784.58,-84.8 781.58,-88.8 760.58,-88.8 757.58,-84.8 667.42,-84.8 667.42,-48.8 784.58,-48.8 784.58,-84.8"/>
<text text-anchor="middle" x="726" y="-62.6" font-family="Times,serif" font-size="14.00">DirectivesModule</text>
</g>
<!-- DirectivesModule&#45;&gt;EasygardenModule -->
<g id="edge5" class="edge">
<title>DirectivesModule&#45;&gt;EasygardenModule</title>
<path fill="none" stroke="black" d="M726,-84.83C726,-101.2 726,-122.8 726,-122.8 726,-122.8 636.63,-122.8 636.63,-122.8"/>
<polygon fill="black" stroke="black" points="636.63,-119.3 626.63,-122.8 636.63,-126.3 636.63,-119.3"/>
</g>
<!-- EasygardenRoutingModule -->
<g id="node7" class="node">
<title>EasygardenRoutingModule</title>
<polygon fill="#8dd3c7" stroke="black" points="648.97,-84.8 645.97,-88.8 624.97,-88.8 621.97,-84.8 479.03,-84.8 479.03,-48.8 648.97,-48.8 648.97,-84.8"/>
<text text-anchor="middle" x="564" y="-62.6" font-family="Times,serif" font-size="14.00">EasygardenRoutingModule</text>
</g>
<!-- EasygardenRoutingModule&#45;&gt;EasygardenModule -->
<g id="edge6" class="edge">
<title>EasygardenRoutingModule&#45;&gt;EasygardenModule</title>
<path fill="none" stroke="black" d="M564,-84.91C564,-84.91 564,-103.79 564,-103.79"/>
<polygon fill="black" stroke="black" points="560.5,-103.79 564,-113.79 567.5,-103.79 560.5,-103.79"/>
</g>
<!-- EditEntityNameModule -->
<g id="node8" class="node">
<title>EditEntityNameModule</title>
<polygon fill="#8dd3c7" stroke="black" points="461.03,-84.8 458.03,-88.8 437.03,-88.8 434.03,-84.8 310.97,-84.8 310.97,-48.8 461.03,-48.8 461.03,-84.8"/>
<text text-anchor="middle" x="386" y="-62.6" font-family="Times,serif" font-size="14.00">EditEntityNameModule</text>
</g>
<!-- EditEntityNameModule&#45;&gt;EasygardenModule -->
<g id="edge7" class="edge">
<title>EditEntityNameModule&#45;&gt;EasygardenModule</title>
<path fill="none" stroke="black" d="M386,-84.83C386,-101.2 386,-122.8 386,-122.8 386,-122.8 491.49,-122.8 491.49,-122.8"/>
<polygon fill="black" stroke="black" points="491.49,-126.3 501.49,-122.8 491.49,-119.3 491.49,-126.3"/>
</g>
</g>
</svg>
