<?xml version="1.0" encoding="UTF-8" standalone="no"?>
<!DOCTYPE svg PUBLIC "-//W3C//DTD SVG 1.1//EN"
 "http://www.w3.org/Graphics/SVG/1.1/DTD/svg11.dtd">
<!-- Generated by graphviz version 5.0.0 (20220707.1540)
 -->
<!-- Title: dependencies Pages: 1 -->
<svg width="370pt" height="247pt"
 viewBox="0.00 0.00 370.00 246.80" xmlns="http://www.w3.org/2000/svg" xmlns:xlink="http://www.w3.org/1999/xlink">
<g id="graph0" class="graph" transform="scale(1 1) rotate(0) translate(4 242.8)">
<title>dependencies</title>
<polygon fill="white" stroke="transparent" points="-4,4 -4,-242.8 366,-242.8 366,4 -4,4"/>
<text text-anchor="middle" x="181" y="-8.2" font-family="sans-serif" font-size="14.00">dependencies</text>
<g id="clust1" class="cluster">
<title>cluster_EditEntityNameModule</title>
<polygon fill="none" stroke="black" stroke-dasharray="1,5" points="8,-32.8 8,-230.8 354,-230.8 354,-32.8 8,-32.8"/>
</g>
<g id="clust5" class="cluster">
<title>cluster_EditEntityNameModule_exports</title>
<polygon fill="none" stroke="black" points="85,-170.8 85,-222.8 277,-222.8 277,-170.8 85,-170.8"/>
</g>
<g id="clust4" class="cluster">
<title>cluster_EditEntityNameModule_imports</title>
<polygon fill="none" stroke="black" points="212,-40.8 212,-92.8 346,-92.8 346,-40.8 212,-40.8"/>
</g>
<g id="clust2" class="cluster">
<title>cluster_EditEntityNameModule_declarations</title>
<polygon fill="none" stroke="black" points="16,-40.8 16,-92.8 204,-92.8 204,-40.8 16,-40.8"/>
</g>
<!-- EditEntityNameComponent -->
<g id="node1" class="node">
<title>EditEntityNameComponent</title>
<polygon fill="#ffffb3" stroke="black" points="196.31,-84.8 23.69,-84.8 23.69,-48.8 196.31,-48.8 196.31,-84.8"/>
<text text-anchor="middle" x="110" y="-62.6" font-family="Times,serif" font-size="14.00">EditEntityNameComponent</text>
</g>
<!-- EditEntityNameModule -->
<g id="node2" class="node">
<title>EditEntityNameModule</title>
<polygon fill="#8dd3c7" stroke="black" points="256.03,-149.8 253.03,-153.8 232.03,-153.8 229.03,-149.8 105.97,-149.8 105.97,-113.8 256.03,-113.8 256.03,-149.8"/>
<text text-anchor="middle" x="181" y="-127.6" font-family="Times,serif" font-size="14.00">EditEntityNameModule</text>
</g>
<!-- EditEntityNameComponent&#45;&gt;EditEntityNameModule -->
<g id="edge1" class="edge">
<title>EditEntityNameComponent&#45;&gt;EditEntityNameModule</title>
<path fill="none" stroke="black" d="M150.94,-84.91C150.94,-84.91 150.94,-103.79 150.94,-103.79"/>
<polygon fill="black" stroke="black" points="147.44,-103.79 150.94,-113.79 154.44,-103.79 147.44,-103.79"/>
</g>
<!-- EditEntityNameComponent  -->
<g id="node4" class="node">
<title>EditEntityNameComponent </title>
<polygon fill="#fb8072" stroke="black" points="268.81,-214.8 93.19,-214.8 93.19,-178.8 268.81,-178.8 268.81,-214.8"/>
<text text-anchor="middle" x="181" y="-192.6" font-family="Times,serif" font-size="14.00">EditEntityNameComponent </text>
</g>
<!-- EditEntityNameModule&#45;&gt;EditEntityNameComponent  -->
<g id="edge3" class="edge">
<title>EditEntityNameModule&#45;&gt;EditEntityNameComponent </title>
<path fill="none" stroke="black" stroke-dasharray="5,2" d="M181,-149.91C181,-149.91 181,-168.79 181,-168.79"/>
<polygon fill="black" stroke="black" points="177.5,-168.79 181,-178.79 184.5,-168.79 177.5,-168.79"/>
</g>
<!-- DirectivesModule -->
<g id="node3" class="node">
<title>DirectivesModule</title>
<polygon fill="#8dd3c7" stroke="black" points="337.58,-84.8 334.58,-88.8 313.58,-88.8 310.58,-84.8 220.42,-84.8 220.42,-48.8 337.58,-48.8 337.58,-84.8"/>
<text text-anchor="middle" x="279" y="-62.6" font-family="Times,serif" font-size="14.00">DirectivesModule</text>
</g>
<!-- DirectivesModule&#45;&gt;EditEntityNameModule -->
<g id="edge2" class="edge">
<title>DirectivesModule&#45;&gt;EditEntityNameModule</title>
<path fill="none" stroke="black" d="M238.36,-84.91C238.36,-84.91 238.36,-103.79 238.36,-103.79"/>
<polygon fill="black" stroke="black" points="234.86,-103.79 238.36,-113.79 241.86,-103.79 234.86,-103.79"/>
</g>
</g>
</svg>
