<?xml version="1.0" encoding="UTF-8" standalone="no"?>
<!DOCTYPE svg PUBLIC "-//W3C//DTD SVG 1.1//EN"
 "http://www.w3.org/Graphics/SVG/1.1/DTD/svg11.dtd">
<!-- Generated by graphviz version 5.0.0 (20220707.1540)
 -->
<!-- Title: dependencies Pages: 1 -->
<svg width="511pt" height="174pt"
 viewBox="0.00 0.00 511.00 173.80" xmlns="http://www.w3.org/2000/svg" xmlns:xlink="http://www.w3.org/1999/xlink">
<g id="graph0" class="graph" transform="scale(1 1) rotate(0) translate(4 169.8)">
<title>dependencies</title>
<polygon fill="white" stroke="transparent" points="-4,4 -4,-169.8 507,-169.8 507,4 -4,4"/>
<text text-anchor="middle" x="251.5" y="-8.2" font-family="sans-serif" font-size="14.00">dependencies</text>
<g id="clust1" class="cluster">
<title>cluster_LightningModule</title>
<polygon fill="none" stroke="black" stroke-dasharray="1,5" points="8,-32.8 8,-157.8 495,-157.8 495,-32.8 8,-32.8"/>
</g>
<g id="clust4" class="cluster">
<title>cluster_LightningModule_imports</title>
<polygon fill="none" stroke="black" points="176,-40.8 176,-92.8 487,-92.8 487,-40.8 176,-40.8"/>
</g>
<g id="clust2" class="cluster">
<title>cluster_LightningModule_declarations</title>
<polygon fill="none" stroke="black" points="16,-40.8 16,-92.8 168,-92.8 168,-40.8 16,-40.8"/>
</g>
<!-- LightningComponent -->
<g id="node1" class="node">
<title>LightningComponent</title>
<polygon fill="#ffffb3" stroke="black" points="160.05,-84.8 23.95,-84.8 23.95,-48.8 160.05,-48.8 160.05,-84.8"/>
<text text-anchor="middle" x="92" y="-62.6" font-family="Times,serif" font-size="14.00">LightningComponent</text>
</g>
<!-- LightningModule -->
<g id="node2" class="node">
<title>LightningModule</title>
<polygon fill="#8dd3c7" stroke="black" points="321.27,-149.8 318.27,-153.8 297.27,-153.8 294.27,-149.8 206.73,-149.8 206.73,-113.8 321.27,-113.8 321.27,-149.8"/>
<text text-anchor="middle" x="264" y="-127.6" font-family="Times,serif" font-size="14.00">LightningModule</text>
</g>
<!-- LightningComponent&#45;&gt;LightningModule -->
<g id="edge1" class="edge">
<title>LightningComponent&#45;&gt;LightningModule</title>
<path fill="none" stroke="black" d="M92,-84.91C92,-104.14 92,-131.8 92,-131.8 92,-131.8 196.73,-131.8 196.73,-131.8"/>
<polygon fill="black" stroke="black" points="196.73,-135.3 206.73,-131.8 196.73,-128.3 196.73,-135.3"/>
</g>
<!-- DirectivesModule -->
<g id="node3" class="node">
<title>DirectivesModule</title>
<polygon fill="#8dd3c7" stroke="black" points="478.58,-84.8 475.58,-88.8 454.58,-88.8 451.58,-84.8 361.42,-84.8 361.42,-48.8 478.58,-48.8 478.58,-84.8"/>
<text text-anchor="middle" x="420" y="-62.6" font-family="Times,serif" font-size="14.00">DirectivesModule</text>
</g>
<!-- DirectivesModule&#45;&gt;LightningModule -->
<g id="edge2" class="edge">
<title>DirectivesModule&#45;&gt;LightningModule</title>
<path fill="none" stroke="black" d="M420,-84.91C420,-104.14 420,-131.8 420,-131.8 420,-131.8 331.65,-131.8 331.65,-131.8"/>
<polygon fill="black" stroke="black" points="331.65,-128.3 321.65,-131.8 331.65,-135.3 331.65,-128.3"/>
</g>
<!-- LightningRoutingModule -->
<g id="node4" class="node">
<title>LightningRoutingModule</title>
<polygon fill="#8dd3c7" stroke="black" points="343.89,-84.8 340.89,-88.8 319.89,-88.8 316.89,-84.8 184.11,-84.8 184.11,-48.8 343.89,-48.8 343.89,-84.8"/>
<text text-anchor="middle" x="264" y="-62.6" font-family="Times,serif" font-size="14.00">LightningRoutingModule</text>
</g>
<!-- LightningRoutingModule&#45;&gt;LightningModule -->
<g id="edge3" class="edge">
<title>LightningRoutingModule&#45;&gt;LightningModule</title>
<path fill="none" stroke="black" d="M264,-84.91C264,-84.91 264,-103.79 264,-103.79"/>
<polygon fill="black" stroke="black" points="260.5,-103.79 264,-113.79 267.5,-103.79 260.5,-103.79"/>
</g>
</g>
</svg>
