<?xml version="1.0" encoding="UTF-8" standalone="no"?>
<!DOCTYPE svg PUBLIC "-//W3C//DTD SVG 1.1//EN"
 "http://www.w3.org/Graphics/SVG/1.1/DTD/svg11.dtd">
<!-- Generated by graphviz version 3.0.0 (20220226.1711)
 -->
<!-- Title: dependencies Pages: 1 -->
<svg width="376pt" height="174pt"
 viewBox="0.00 0.00 376.00 173.80" xmlns="http://www.w3.org/2000/svg" xmlns:xlink="http://www.w3.org/1999/xlink">
<g id="graph0" class="graph" transform="scale(1 1) rotate(0) translate(4 169.8)">
<title>dependencies</title>
<polygon fill="white" stroke="transparent" points="-4,4 -4,-169.8 372,-169.8 372,4 -4,4"/>
<text text-anchor="middle" x="184" y="-8.2" font-family="sans-serif" font-size="14.00">dependencies</text>
<g id="clust1" class="cluster">
<title>cluster_LightningModule</title>
<polygon fill="none" stroke="black" stroke-dasharray="1,5" points="8,-32.8 8,-157.8 360,-157.8 360,-32.8 8,-32.8"/>
</g>
<g id="clust2" class="cluster">
<title>cluster_LightningModule_declarations</title>
<polygon fill="none" stroke="black" points="200,-40.8 200,-92.8 352,-92.8 352,-40.8 200,-40.8"/>
</g>
<g id="clust4" class="cluster">
<title>cluster_LightningModule_imports</title>
<polygon fill="none" stroke="black" points="16,-40.8 16,-92.8 192,-92.8 192,-40.8 16,-40.8"/>
</g>
<!-- LightningComponent -->
<g id="node1" class="node">
<title>LightningComponent</title>
<polygon fill="#ffffb3" stroke="black" points="344.05,-84.8 207.95,-84.8 207.95,-48.8 344.05,-48.8 344.05,-84.8"/>
<text text-anchor="middle" x="276" y="-62.6" font-family="Times,serif" font-size="14.00">LightningComponent</text>
</g>
<!-- LightningModule -->
<g id="node2" class="node">
<title>LightningModule</title>
<polygon fill="#8dd3c7" stroke="black" points="247.27,-149.8 244.27,-153.8 223.27,-153.8 220.27,-149.8 132.73,-149.8 132.73,-113.8 247.27,-113.8 247.27,-149.8"/>
<text text-anchor="middle" x="190" y="-127.6" font-family="Times,serif" font-size="14.00">LightningModule</text>
</g>
<!-- LightningComponent&#45;&gt;LightningModule -->
<g id="edge1" class="edge">
<title>LightningComponent&#45;&gt;LightningModule</title>
<path fill="none" stroke="black" d="M227.56,-84.91C227.56,-84.91 227.56,-103.79 227.56,-103.79"/>
<polygon fill="black" stroke="black" points="224.06,-103.79 227.56,-113.79 231.06,-103.79 224.06,-103.79"/>
</g>
<!-- LightningRoutingModule -->
<g id="node3" class="node">
<title>LightningRoutingModule</title>
<polygon fill="#8dd3c7" stroke="black" points="183.89,-84.8 180.89,-88.8 159.89,-88.8 156.89,-84.8 24.11,-84.8 24.11,-48.8 183.89,-48.8 183.89,-84.8"/>
<text text-anchor="middle" x="104" y="-62.6" font-family="Times,serif" font-size="14.00">LightningRoutingModule</text>
</g>
<!-- LightningRoutingModule&#45;&gt;LightningModule -->
<g id="edge2" class="edge">
<title>LightningRoutingModule&#45;&gt;LightningModule</title>
<path fill="none" stroke="black" d="M158.28,-84.91C158.28,-84.91 158.28,-103.79 158.28,-103.79"/>
<polygon fill="black" stroke="black" points="154.78,-103.79 158.28,-113.79 161.78,-103.79 154.78,-103.79"/>
</g>
</g>
</svg>
