<?xml version="1.0" encoding="UTF-8" standalone="no"?>
<!DOCTYPE svg PUBLIC "-//W3C//DTD SVG 1.1//EN"
 "http://www.w3.org/Graphics/SVG/1.1/DTD/svg11.dtd">
<!-- Generated by graphviz version 3.0.0 (20220226.1711)
 -->
<!-- Title: dependencies Pages: 1 -->
<svg width="332pt" height="174pt"
 viewBox="0.00 0.00 332.00 173.80" xmlns="http://www.w3.org/2000/svg" xmlns:xlink="http://www.w3.org/1999/xlink">
<g id="graph0" class="graph" transform="scale(1 1) rotate(0) translate(4 169.8)">
<title>dependencies</title>
<polygon fill="white" stroke="transparent" points="-4,4 -4,-169.8 328,-169.8 328,4 -4,4"/>
<text text-anchor="middle" x="162" y="-8.2" font-family="sans-serif" font-size="14.00">dependencies</text>
<g id="clust1" class="cluster">
<title>cluster_PortalModule</title>
<polygon fill="none" stroke="black" stroke-dasharray="1,5" points="8,-32.8 8,-157.8 316,-157.8 316,-32.8 8,-32.8"/>
</g>
<g id="clust2" class="cluster">
<title>cluster_PortalModule_declarations</title>
<polygon fill="none" stroke="black" points="178,-40.8 178,-92.8 308,-92.8 308,-40.8 178,-40.8"/>
</g>
<g id="clust4" class="cluster">
<title>cluster_PortalModule_imports</title>
<polygon fill="none" stroke="black" points="16,-40.8 16,-92.8 170,-92.8 170,-40.8 16,-40.8"/>
</g>
<!-- PortalComponent -->
<g id="node1" class="node">
<title>PortalComponent</title>
<polygon fill="#ffffb3" stroke="black" points="300.27,-84.8 185.73,-84.8 185.73,-48.8 300.27,-48.8 300.27,-84.8"/>
<text text-anchor="middle" x="243" y="-62.6" font-family="Times,serif" font-size="14.00">PortalComponent</text>
</g>
<!-- PortalModule -->
<g id="node2" class="node">
<title>PortalModule</title>
<polygon fill="#8dd3c7" stroke="black" points="214.49,-149.8 211.49,-153.8 190.49,-153.8 187.49,-149.8 121.51,-149.8 121.51,-113.8 214.49,-113.8 214.49,-149.8"/>
<text text-anchor="middle" x="168" y="-127.6" font-family="Times,serif" font-size="14.00">PortalModule</text>
</g>
<!-- PortalComponent&#45;&gt;PortalModule -->
<g id="edge1" class="edge">
<title>PortalComponent&#45;&gt;PortalModule</title>
<path fill="none" stroke="black" d="M200.06,-84.91C200.06,-84.91 200.06,-103.79 200.06,-103.79"/>
<polygon fill="black" stroke="black" points="196.56,-103.79 200.06,-113.79 203.56,-103.79 196.56,-103.79"/>
</g>
<!-- PortalRoutingModule -->
<g id="node3" class="node">
<title>PortalRoutingModule</title>
<polygon fill="#8dd3c7" stroke="black" points="162.11,-84.8 159.11,-88.8 138.11,-88.8 135.11,-84.8 23.89,-84.8 23.89,-48.8 162.11,-48.8 162.11,-84.8"/>
<text text-anchor="middle" x="93" y="-62.6" font-family="Times,serif" font-size="14.00">PortalRoutingModule</text>
</g>
<!-- PortalRoutingModule&#45;&gt;PortalModule -->
<g id="edge2" class="edge">
<title>PortalRoutingModule&#45;&gt;PortalModule</title>
<path fill="none" stroke="black" d="M141.78,-84.91C141.78,-84.91 141.78,-103.79 141.78,-103.79"/>
<polygon fill="black" stroke="black" points="138.28,-103.79 141.78,-113.79 145.28,-103.79 138.28,-103.79"/>
</g>
</g>
</svg>
