<?xml version="1.0" encoding="UTF-8" standalone="no"?>
<!DOCTYPE svg PUBLIC "-//W3C//DTD SVG 1.1//EN"
 "http://www.w3.org/Graphics/SVG/1.1/DTD/svg11.dtd">
<!-- Generated by graphviz version 5.0.0 (20220707.1540)
 -->
<!-- Title: dependencies Pages: 1 -->
<svg width="468pt" height="174pt"
 viewBox="0.00 0.00 468.00 173.80" xmlns="http://www.w3.org/2000/svg" xmlns:xlink="http://www.w3.org/1999/xlink">
<g id="graph0" class="graph" transform="scale(1 1) rotate(0) translate(4 169.8)">
<title>dependencies</title>
<polygon fill="white" stroke="transparent" points="-4,4 -4,-169.8 464,-169.8 464,4 -4,4"/>
<text text-anchor="middle" x="230" y="-8.2" font-family="sans-serif" font-size="14.00">dependencies</text>
<g id="clust1" class="cluster">
<title>cluster_PortalModule</title>
<polygon fill="none" stroke="black" stroke-dasharray="1,5" points="8,-32.8 8,-157.8 452,-157.8 452,-32.8 8,-32.8"/>
</g>
<g id="clust2" class="cluster">
<title>cluster_PortalModule_declarations</title>
<polygon fill="none" stroke="black" points="314,-40.8 314,-92.8 444,-92.8 444,-40.8 314,-40.8"/>
</g>
<g id="clust4" class="cluster">
<title>cluster_PortalModule_imports</title>
<polygon fill="none" stroke="black" points="16,-40.8 16,-92.8 306,-92.8 306,-40.8 16,-40.8"/>
</g>
<!-- PortalComponent -->
<g id="node1" class="node">
<title>PortalComponent</title>
<polygon fill="#ffffb3" stroke="black" points="436.27,-84.8 321.73,-84.8 321.73,-48.8 436.27,-48.8 436.27,-84.8"/>
<text text-anchor="middle" x="379" y="-62.6" font-family="Times,serif" font-size="14.00">PortalComponent</text>
</g>
<!-- PortalModule -->
<g id="node2" class="node">
<title>PortalModule</title>
<polygon fill="#8dd3c7" stroke="black" points="285.49,-149.8 282.49,-153.8 261.49,-153.8 258.49,-149.8 192.51,-149.8 192.51,-113.8 285.49,-113.8 285.49,-149.8"/>
<text text-anchor="middle" x="239" y="-127.6" font-family="Times,serif" font-size="14.00">PortalModule</text>
</g>
<!-- PortalComponent&#45;&gt;PortalModule -->
<g id="edge1" class="edge">
<title>PortalComponent&#45;&gt;PortalModule</title>
<path fill="none" stroke="black" d="M379,-84.91C379,-104.14 379,-131.8 379,-131.8 379,-131.8 295.62,-131.8 295.62,-131.8"/>
<polygon fill="black" stroke="black" points="295.62,-128.3 285.62,-131.8 295.62,-135.3 295.62,-128.3"/>
</g>
<!-- DirectivesModule -->
<g id="node3" class="node">
<title>DirectivesModule</title>
<polygon fill="#8dd3c7" stroke="black" points="297.58,-84.8 294.58,-88.8 273.58,-88.8 270.58,-84.8 180.42,-84.8 180.42,-48.8 297.58,-48.8 297.58,-84.8"/>
<text text-anchor="middle" x="239" y="-62.6" font-family="Times,serif" font-size="14.00">DirectivesModule</text>
</g>
<!-- DirectivesModule&#45;&gt;PortalModule -->
<g id="edge2" class="edge">
<title>DirectivesModule&#45;&gt;PortalModule</title>
<path fill="none" stroke="black" d="M239,-84.91C239,-84.91 239,-103.79 239,-103.79"/>
<polygon fill="black" stroke="black" points="235.5,-103.79 239,-113.79 242.5,-103.79 235.5,-103.79"/>
</g>
<!-- PortalRoutingModule -->
<g id="node4" class="node">
<title>PortalRoutingModule</title>
<polygon fill="#8dd3c7" stroke="black" points="162.11,-84.8 159.11,-88.8 138.11,-88.8 135.11,-84.8 23.89,-84.8 23.89,-48.8 162.11,-48.8 162.11,-84.8"/>
<text text-anchor="middle" x="93" y="-62.6" font-family="Times,serif" font-size="14.00">PortalRoutingModule</text>
</g>
<!-- PortalRoutingModule&#45;&gt;PortalModule -->
<g id="edge3" class="edge">
<title>PortalRoutingModule&#45;&gt;PortalModule</title>
<path fill="none" stroke="black" d="M93,-84.91C93,-104.14 93,-131.8 93,-131.8 93,-131.8 182.4,-131.8 182.4,-131.8"/>
<polygon fill="black" stroke="black" points="182.4,-135.3 192.4,-131.8 182.4,-128.3 182.4,-135.3"/>
</g>
</g>
</svg>
