<?xml version="1.0" encoding="UTF-8" standalone="no"?>
<!DOCTYPE svg PUBLIC "-//W3C//DTD SVG 1.1//EN"
 "http://www.w3.org/Graphics/SVG/1.1/DTD/svg11.dtd">
<!-- Generated by graphviz version 5.0.0 (20220707.1540)
 -->
<!-- Title: dependencies Pages: 1 -->
<svg width="600pt" height="247pt"
 viewBox="0.00 0.00 600.00 246.80" xmlns="http://www.w3.org/2000/svg" xmlns:xlink="http://www.w3.org/1999/xlink">
<g id="graph0" class="graph" transform="scale(1 1) rotate(0) translate(4 242.8)">
<title>dependencies</title>
<polygon fill="white" stroke="transparent" points="-4,4 -4,-242.8 596,-242.8 596,4 -4,4"/>
<text text-anchor="middle" x="296" y="-8.2" font-family="sans-serif" font-size="14.00">dependencies</text>
<g id="clust1" class="cluster">
<title>cluster_AppModule</title>
<polygon fill="none" stroke="black" stroke-dasharray="1,5" points="8,-32.8 8,-230.8 584,-230.8 584,-32.8 8,-32.8"/>
</g>
<g id="clust6" class="cluster">
<title>cluster_AppModule_imports</title>
<polygon fill="none" stroke="black" points="432,-40.8 432,-92.8 576,-92.8 576,-40.8 432,-40.8"/>
</g>
<g id="clust8" class="cluster">
<title>cluster_AppModule_bootstrap</title>
<polygon fill="none" stroke="black" points="232,-170.8 232,-222.8 356,-222.8 356,-170.8 232,-170.8"/>
</g>
<g id="clust2" class="cluster">
<title>cluster_AppModule_declarations</title>
<polygon fill="none" stroke="black" points="16,-40.8 16,-92.8 424,-92.8 424,-40.8 16,-40.8"/>
</g>
<!-- AppComponent -->
<g id="node1" class="node">
<title>AppComponent</title>
<polygon fill="#ffffb3" stroke="black" points="415.94,-84.8 310.06,-84.8 310.06,-48.8 415.94,-48.8 415.94,-84.8"/>
<text text-anchor="middle" x="363" y="-62.6" font-family="Times,serif" font-size="14.00">AppComponent</text>
</g>
<!-- AppModule -->
<g id="node4" class="node">
<title>AppModule</title>
<polygon fill="#8dd3c7" stroke="black" points="335.66,-149.8 332.66,-153.8 311.66,-153.8 308.66,-149.8 252.34,-149.8 252.34,-113.8 335.66,-113.8 335.66,-149.8"/>
<text text-anchor="middle" x="294" y="-127.6" font-family="Times,serif" font-size="14.00">AppModule</text>
</g>
<!-- AppComponent&#45;&gt;AppModule -->
<g id="edge1" class="edge">
<title>AppComponent&#45;&gt;AppModule</title>
<path fill="none" stroke="black" d="M323.06,-84.91C323.06,-84.91 323.06,-103.79 323.06,-103.79"/>
<polygon fill="black" stroke="black" points="319.56,-103.79 323.06,-113.79 326.56,-103.79 319.56,-103.79"/>
</g>
<!-- Error404Component -->
<g id="node2" class="node">
<title>Error404Component</title>
<polygon fill="#ffffb3" stroke="black" points="291.87,-84.8 160.13,-84.8 160.13,-48.8 291.87,-48.8 291.87,-84.8"/>
<text text-anchor="middle" x="226" y="-62.6" font-family="Times,serif" font-size="14.00">Error404Component</text>
</g>
<!-- Error404Component&#45;&gt;AppModule -->
<g id="edge2" class="edge">
<title>Error404Component&#45;&gt;AppModule</title>
<path fill="none" stroke="black" d="M272.05,-84.91C272.05,-84.91 272.05,-103.79 272.05,-103.79"/>
<polygon fill="black" stroke="black" points="268.55,-103.79 272.05,-113.79 275.55,-103.79 268.55,-103.79"/>
</g>
<!-- FooterComponent -->
<g id="node3" class="node">
<title>FooterComponent</title>
<polygon fill="#ffffb3" stroke="black" points="141.88,-84.8 24.12,-84.8 24.12,-48.8 141.88,-48.8 141.88,-84.8"/>
<text text-anchor="middle" x="83" y="-62.6" font-family="Times,serif" font-size="14.00">FooterComponent</text>
</g>
<!-- FooterComponent&#45;&gt;AppModule -->
<g id="edge3" class="edge">
<title>FooterComponent&#45;&gt;AppModule</title>
<path fill="none" stroke="black" d="M83,-84.91C83,-104.14 83,-131.8 83,-131.8 83,-131.8 242.31,-131.8 242.31,-131.8"/>
<polygon fill="black" stroke="black" points="242.31,-135.3 252.31,-131.8 242.31,-128.3 242.31,-135.3"/>
</g>
<!-- AppComponent  -->
<g id="node6" class="node">
<title>AppComponent </title>
<polygon fill="#80b1d3" stroke="black" points="348.44,-214.8 239.56,-214.8 239.56,-178.8 348.44,-178.8 348.44,-214.8"/>
<text text-anchor="middle" x="294" y="-192.6" font-family="Times,serif" font-size="14.00">AppComponent </text>
</g>
<!-- AppModule&#45;&gt;AppComponent  -->
<g id="edge5" class="edge">
<title>AppModule&#45;&gt;AppComponent </title>
<path fill="none" stroke="black" stroke-dasharray="1,5" d="M294,-149.91C294,-149.91 294,-168.79 294,-168.79"/>
<polygon fill="black" stroke="black" points="290.5,-168.79 294,-178.79 297.5,-168.79 290.5,-168.79"/>
</g>
<!-- AppRoutingModule -->
<g id="node5" class="node">
<title>AppRoutingModule</title>
<polygon fill="#8dd3c7" stroke="black" points="568.28,-84.8 565.28,-88.8 544.28,-88.8 541.28,-84.8 439.72,-84.8 439.72,-48.8 568.28,-48.8 568.28,-84.8"/>
<text text-anchor="middle" x="504" y="-62.6" font-family="Times,serif" font-size="14.00">AppRoutingModule</text>
</g>
<!-- AppRoutingModule&#45;&gt;AppModule -->
<g id="edge4" class="edge">
<title>AppRoutingModule&#45;&gt;AppModule</title>
<path fill="none" stroke="black" d="M504,-84.91C504,-104.14 504,-131.8 504,-131.8 504,-131.8 345.74,-131.8 345.74,-131.8"/>
<polygon fill="black" stroke="black" points="345.74,-128.3 335.74,-131.8 345.74,-135.3 345.74,-128.3"/>
</g>
</g>
</svg>
