<?xml version="1.0" encoding="UTF-8" standalone="no"?>
<!DOCTYPE svg PUBLIC "-//W3C//DTD SVG 1.1//EN"
 "http://www.w3.org/Graphics/SVG/1.1/DTD/svg11.dtd">
<!-- Generated by graphviz version 3.0.0 (20220226.1711)
 -->
<!-- Title: dependencies Pages: 1 -->
<svg width="578pt" height="247pt"
 viewBox="0.00 0.00 578.00 246.80" xmlns="http://www.w3.org/2000/svg" xmlns:xlink="http://www.w3.org/1999/xlink">
<g id="graph0" class="graph" transform="scale(1 1) rotate(0) translate(4 242.8)">
<title>dependencies</title>
<polygon fill="white" stroke="transparent" points="-4,4 -4,-242.8 574,-242.8 574,4 -4,4"/>
<text text-anchor="middle" x="285" y="-8.2" font-family="sans-serif" font-size="14.00">dependencies</text>
<g id="clust1" class="cluster">
<title>cluster_AppModule</title>
<polygon fill="none" stroke="black" stroke-dasharray="1,5" points="8,-32.8 8,-230.8 562,-230.8 562,-32.8 8,-32.8"/>
</g>
<g id="clust2" class="cluster">
<title>cluster_AppModule_declarations</title>
<polygon fill="none" stroke="black" points="168,-40.8 168,-92.8 554,-92.8 554,-40.8 168,-40.8"/>
</g>
<g id="clust6" class="cluster">
<title>cluster_AppModule_imports</title>
<polygon fill="none" stroke="black" points="16,-40.8 16,-92.8 160,-92.8 160,-40.8 16,-40.8"/>
</g>
<g id="clust8" class="cluster">
<title>cluster_AppModule_bootstrap</title>
<polygon fill="none" stroke="black" points="239,-170.8 239,-222.8 363,-222.8 363,-170.8 239,-170.8"/>
</g>
<!-- AppComponent -->
<g id="node1" class="node">
<title>AppComponent</title>
<polygon fill="#ffffb3" stroke="black" points="545.94,-84.8 440.06,-84.8 440.06,-48.8 545.94,-48.8 545.94,-84.8"/>
<text text-anchor="middle" x="493" y="-62.6" font-family="Times,serif" font-size="14.00">AppComponent</text>
</g>
<!-- AppModule -->
<g id="node4" class="node">
<title>AppModule</title>
<polygon fill="#8dd3c7" stroke="black" points="342.66,-149.8 339.66,-153.8 318.66,-153.8 315.66,-149.8 259.34,-149.8 259.34,-113.8 342.66,-113.8 342.66,-149.8"/>
<text text-anchor="middle" x="301" y="-127.6" font-family="Times,serif" font-size="14.00">AppModule</text>
</g>
<!-- AppComponent&#45;&gt;AppModule -->
<g id="edge1" class="edge">
<title>AppComponent&#45;&gt;AppModule</title>
<path fill="none" stroke="black" d="M493,-84.91C493,-104.14 493,-131.8 493,-131.8 493,-131.8 353.14,-131.8 353.14,-131.8"/>
<polygon fill="black" stroke="black" points="353.14,-128.3 343.14,-131.8 353.14,-135.3 353.14,-128.3"/>
</g>
<!-- ErrorComponent -->
<g id="node2" class="node">
<title>ErrorComponent</title>
<polygon fill="#ffffb3" stroke="black" points="422.37,-84.8 311.63,-84.8 311.63,-48.8 422.37,-48.8 422.37,-84.8"/>
<text text-anchor="middle" x="367" y="-62.6" font-family="Times,serif" font-size="14.00">ErrorComponent</text>
</g>
<!-- ErrorComponent&#45;&gt;AppModule -->
<g id="edge2" class="edge">
<title>ErrorComponent&#45;&gt;AppModule</title>
<path fill="none" stroke="black" d="M327.2,-84.91C327.2,-84.91 327.2,-103.79 327.2,-103.79"/>
<polygon fill="black" stroke="black" points="323.7,-103.79 327.2,-113.79 330.7,-103.79 323.7,-103.79"/>
</g>
<!-- FooterComponent -->
<g id="node3" class="node">
<title>FooterComponent</title>
<polygon fill="#ffffb3" stroke="black" points="293.88,-84.8 176.12,-84.8 176.12,-48.8 293.88,-48.8 293.88,-84.8"/>
<text text-anchor="middle" x="235" y="-62.6" font-family="Times,serif" font-size="14.00">FooterComponent</text>
</g>
<!-- FooterComponent&#45;&gt;AppModule -->
<g id="edge3" class="edge">
<title>FooterComponent&#45;&gt;AppModule</title>
<path fill="none" stroke="black" d="M276.56,-84.91C276.56,-84.91 276.56,-103.79 276.56,-103.79"/>
<polygon fill="black" stroke="black" points="273.06,-103.79 276.56,-113.79 280.06,-103.79 273.06,-103.79"/>
</g>
<!-- AppComponent  -->
<g id="node6" class="node">
<title>AppComponent </title>
<polygon fill="#80b1d3" stroke="black" points="355.44,-214.8 246.56,-214.8 246.56,-178.8 355.44,-178.8 355.44,-214.8"/>
<text text-anchor="middle" x="301" y="-192.6" font-family="Times,serif" font-size="14.00">AppComponent </text>
</g>
<!-- AppModule&#45;&gt;AppComponent  -->
<g id="edge5" class="edge">
<title>AppModule&#45;&gt;AppComponent </title>
<path fill="none" stroke="black" stroke-dasharray="1,5" d="M301,-149.91C301,-149.91 301,-168.79 301,-168.79"/>
<polygon fill="black" stroke="black" points="297.5,-168.79 301,-178.79 304.5,-168.79 297.5,-168.79"/>
</g>
<!-- AppRoutingModule -->
<g id="node5" class="node">
<title>AppRoutingModule</title>
<polygon fill="#8dd3c7" stroke="black" points="152.28,-84.8 149.28,-88.8 128.28,-88.8 125.28,-84.8 23.72,-84.8 23.72,-48.8 152.28,-48.8 152.28,-84.8"/>
<text text-anchor="middle" x="88" y="-62.6" font-family="Times,serif" font-size="14.00">AppRoutingModule</text>
</g>
<!-- AppRoutingModule&#45;&gt;AppModule -->
<g id="edge4" class="edge">
<title>AppRoutingModule&#45;&gt;AppModule</title>
<path fill="none" stroke="black" d="M88,-84.91C88,-104.14 88,-131.8 88,-131.8 88,-131.8 249.17,-131.8 249.17,-131.8"/>
<polygon fill="black" stroke="black" points="249.17,-135.3 259.17,-131.8 249.17,-128.3 249.17,-135.3"/>
</g>
</g>
</svg>
