<?xml version="1.0" encoding="UTF-8" standalone="no"?>
<!DOCTYPE svg PUBLIC "-//W3C//DTD SVG 1.1//EN"
 "http://www.w3.org/Graphics/SVG/1.1/DTD/svg11.dtd">
<!-- Generated by graphviz version 5.0.0 (20220707.1540)
 -->
<!-- Title: dependencies Pages: 1 -->
<svg width="338pt" height="247pt"
 viewBox="0.00 0.00 338.00 246.80" xmlns="http://www.w3.org/2000/svg" xmlns:xlink="http://www.w3.org/1999/xlink">
<g id="graph0" class="graph" transform="scale(1 1) rotate(0) translate(4 242.8)">
<title>dependencies</title>
<polygon fill="white" stroke="transparent" points="-4,4 -4,-242.8 334,-242.8 334,4 -4,4"/>
<text text-anchor="middle" x="165" y="-8.2" font-family="sans-serif" font-size="14.00">dependencies</text>
<g id="clust1" class="cluster">
<title>cluster_AddEntityModule</title>
<polygon fill="none" stroke="black" stroke-dasharray="1,5" points="8,-32.8 8,-230.8 322,-230.8 322,-32.8 8,-32.8"/>
</g>
<g id="clust2" class="cluster">
<title>cluster_AddEntityModule_declarations</title>
<polygon fill="none" stroke="black" points="158,-40.8 158,-92.8 314,-92.8 314,-40.8 158,-40.8"/>
</g>
<g id="clust5" class="cluster">
<title>cluster_AddEntityModule_exports</title>
<polygon fill="none" stroke="black" points="85,-170.8 85,-222.8 245,-222.8 245,-170.8 85,-170.8"/>
</g>
<g id="clust4" class="cluster">
<title>cluster_AddEntityModule_imports</title>
<polygon fill="none" stroke="black" points="16,-40.8 16,-92.8 150,-92.8 150,-40.8 16,-40.8"/>
</g>
<!-- AddEntityComponent -->
<g id="node1" class="node">
<title>AddEntityComponent</title>
<polygon fill="#ffffb3" stroke="black" points="305.66,-84.8 166.34,-84.8 166.34,-48.8 305.66,-48.8 305.66,-84.8"/>
<text text-anchor="middle" x="236" y="-62.6" font-family="Times,serif" font-size="14.00">AddEntityComponent</text>
</g>
<!-- AddEntityModule -->
<g id="node2" class="node">
<title>AddEntityModule</title>
<polygon fill="#8dd3c7" stroke="black" points="223.88,-149.8 220.88,-153.8 199.88,-153.8 196.88,-149.8 106.12,-149.8 106.12,-113.8 223.88,-113.8 223.88,-149.8"/>
<text text-anchor="middle" x="165" y="-127.6" font-family="Times,serif" font-size="14.00">AddEntityModule</text>
</g>
<!-- AddEntityComponent&#45;&gt;AddEntityModule -->
<g id="edge1" class="edge">
<title>AddEntityComponent&#45;&gt;AddEntityModule</title>
<path fill="none" stroke="black" d="M195.06,-84.91C195.06,-84.91 195.06,-103.79 195.06,-103.79"/>
<polygon fill="black" stroke="black" points="191.56,-103.79 195.06,-113.79 198.56,-103.79 191.56,-103.79"/>
</g>
<!-- AddEntityComponent  -->
<g id="node4" class="node">
<title>AddEntityComponent </title>
<polygon fill="#fb8072" stroke="black" points="236.66,-214.8 93.34,-214.8 93.34,-178.8 236.66,-178.8 236.66,-214.8"/>
<text text-anchor="middle" x="165" y="-192.6" font-family="Times,serif" font-size="14.00">AddEntityComponent </text>
</g>
<!-- AddEntityModule&#45;&gt;AddEntityComponent  -->
<g id="edge3" class="edge">
<title>AddEntityModule&#45;&gt;AddEntityComponent </title>
<path fill="none" stroke="black" stroke-dasharray="5,2" d="M165,-149.91C165,-149.91 165,-168.79 165,-168.79"/>
<polygon fill="black" stroke="black" points="161.5,-168.79 165,-178.79 168.5,-168.79 161.5,-168.79"/>
</g>
<!-- DirectivesModule -->
<g id="node3" class="node">
<title>DirectivesModule</title>
<polygon fill="#8dd3c7" stroke="black" points="141.58,-84.8 138.58,-88.8 117.58,-88.8 114.58,-84.8 24.42,-84.8 24.42,-48.8 141.58,-48.8 141.58,-84.8"/>
<text text-anchor="middle" x="83" y="-62.6" font-family="Times,serif" font-size="14.00">DirectivesModule</text>
</g>
<!-- DirectivesModule&#45;&gt;AddEntityModule -->
<g id="edge2" class="edge">
<title>DirectivesModule&#45;&gt;AddEntityModule</title>
<path fill="none" stroke="black" d="M123.8,-84.91C123.8,-84.91 123.8,-103.79 123.8,-103.79"/>
<polygon fill="black" stroke="black" points="120.3,-103.79 123.8,-113.79 127.3,-103.79 120.3,-103.79"/>
</g>
</g>
</svg>
