<?xml version="1.0" encoding="UTF-8" standalone="no"?>
<!DOCTYPE svg PUBLIC "-//W3C//DTD SVG 1.1//EN"
 "http://www.w3.org/Graphics/SVG/1.1/DTD/svg11.dtd">
<!-- Generated by graphviz version 5.0.0 (20220707.1540)
 -->
<!-- Title: dependencies Pages: 1 -->
<svg width="454pt" height="174pt"
 viewBox="0.00 0.00 454.00 173.80" xmlns="http://www.w3.org/2000/svg" xmlns:xlink="http://www.w3.org/1999/xlink">
<g id="graph0" class="graph" transform="scale(1 1) rotate(0) translate(4 169.8)">
<title>dependencies</title>
<polygon fill="white" stroke="transparent" points="-4,4 -4,-169.8 450,-169.8 450,4 -4,4"/>
<text text-anchor="middle" x="223" y="-8.2" font-family="sans-serif" font-size="14.00">dependencies</text>
<g id="clust1" class="cluster">
<title>cluster_PoolModule</title>
<polygon fill="none" stroke="black" stroke-dasharray="1,5" points="8,-32.8 8,-157.8 438,-157.8 438,-32.8 8,-32.8"/>
</g>
<g id="clust4" class="cluster">
<title>cluster_PoolModule_imports</title>
<polygon fill="none" stroke="black" points="148,-40.8 148,-92.8 430,-92.8 430,-40.8 148,-40.8"/>
</g>
<g id="clust2" class="cluster">
<title>cluster_PoolModule_declarations</title>
<polygon fill="none" stroke="black" points="16,-40.8 16,-92.8 140,-92.8 140,-40.8 16,-40.8"/>
</g>
<!-- PoolComponent -->
<g id="node1" class="node">
<title>PoolComponent</title>
<polygon fill="#ffffb3" stroke="black" points="131.51,-84.8 24.49,-84.8 24.49,-48.8 131.51,-48.8 131.51,-84.8"/>
<text text-anchor="middle" x="78" y="-62.6" font-family="Times,serif" font-size="14.00">PoolComponent</text>
</g>
<!-- PoolModule -->
<g id="node2" class="node">
<title>PoolModule</title>
<polygon fill="#8dd3c7" stroke="black" points="263.73,-149.8 260.73,-153.8 239.73,-153.8 236.73,-149.8 178.27,-149.8 178.27,-113.8 263.73,-113.8 263.73,-149.8"/>
<text text-anchor="middle" x="221" y="-127.6" font-family="Times,serif" font-size="14.00">PoolModule</text>
</g>
<!-- PoolComponent&#45;&gt;PoolModule -->
<g id="edge1" class="edge">
<title>PoolComponent&#45;&gt;PoolModule</title>
<path fill="none" stroke="black" d="M78,-84.91C78,-104.14 78,-131.8 78,-131.8 78,-131.8 168.1,-131.8 168.1,-131.8"/>
<polygon fill="black" stroke="black" points="168.1,-135.3 178.1,-131.8 168.1,-128.3 168.1,-135.3"/>
</g>
<!-- DirectivesModule -->
<g id="node3" class="node">
<title>DirectivesModule</title>
<polygon fill="#8dd3c7" stroke="black" points="421.58,-84.8 418.58,-88.8 397.58,-88.8 394.58,-84.8 304.42,-84.8 304.42,-48.8 421.58,-48.8 421.58,-84.8"/>
<text text-anchor="middle" x="363" y="-62.6" font-family="Times,serif" font-size="14.00">DirectivesModule</text>
</g>
<!-- DirectivesModule&#45;&gt;PoolModule -->
<g id="edge2" class="edge">
<title>DirectivesModule&#45;&gt;PoolModule</title>
<path fill="none" stroke="black" d="M363,-84.91C363,-104.14 363,-131.8 363,-131.8 363,-131.8 273.99,-131.8 273.99,-131.8"/>
<polygon fill="black" stroke="black" points="273.99,-128.3 263.99,-131.8 273.99,-135.3 273.99,-128.3"/>
</g>
<!-- PoolRoutingModule -->
<g id="node4" class="node">
<title>PoolRoutingModule</title>
<polygon fill="#8dd3c7" stroke="black" points="286.35,-84.8 283.35,-88.8 262.35,-88.8 259.35,-84.8 155.65,-84.8 155.65,-48.8 286.35,-48.8 286.35,-84.8"/>
<text text-anchor="middle" x="221" y="-62.6" font-family="Times,serif" font-size="14.00">PoolRoutingModule</text>
</g>
<!-- PoolRoutingModule&#45;&gt;PoolModule -->
<g id="edge3" class="edge">
<title>PoolRoutingModule&#45;&gt;PoolModule</title>
<path fill="none" stroke="black" d="M221,-84.91C221,-84.91 221,-103.79 221,-103.79"/>
<polygon fill="black" stroke="black" points="217.5,-103.79 221,-113.79 224.5,-103.79 217.5,-103.79"/>
</g>
</g>
</svg>
