<?xml version="1.0" encoding="UTF-8" standalone="no"?>
<!DOCTYPE svg PUBLIC "-//W3C//DTD SVG 1.1//EN"
 "http://www.w3.org/Graphics/SVG/1.1/DTD/svg11.dtd">
<!-- Generated by graphviz version 3.0.0 (20220226.1711)
 -->
<!-- Title: dependencies Pages: 1 -->
<svg width="318pt" height="174pt"
 viewBox="0.00 0.00 318.00 173.80" xmlns="http://www.w3.org/2000/svg" xmlns:xlink="http://www.w3.org/1999/xlink">
<g id="graph0" class="graph" transform="scale(1 1) rotate(0) translate(4 169.8)">
<title>dependencies</title>
<polygon fill="white" stroke="transparent" points="-4,4 -4,-169.8 314,-169.8 314,4 -4,4"/>
<text text-anchor="middle" x="155" y="-8.2" font-family="sans-serif" font-size="14.00">dependencies</text>
<g id="clust1" class="cluster">
<title>cluster_PoolModule</title>
<polygon fill="none" stroke="black" stroke-dasharray="1,5" points="8,-32.8 8,-157.8 302,-157.8 302,-32.8 8,-32.8"/>
</g>
<g id="clust4" class="cluster">
<title>cluster_PoolModule_imports</title>
<polygon fill="none" stroke="black" points="148,-40.8 148,-92.8 294,-92.8 294,-40.8 148,-40.8"/>
</g>
<g id="clust2" class="cluster">
<title>cluster_PoolModule_declarations</title>
<polygon fill="none" stroke="black" points="16,-40.8 16,-92.8 140,-92.8 140,-40.8 16,-40.8"/>
</g>
<!-- PoolComponent -->
<g id="node1" class="node">
<title>PoolComponent</title>
<polygon fill="#ffffb3" stroke="black" points="131.51,-84.8 24.49,-84.8 24.49,-48.8 131.51,-48.8 131.51,-84.8"/>
<text text-anchor="middle" x="78" y="-62.6" font-family="Times,serif" font-size="14.00">PoolComponent</text>
</g>
<!-- PoolModule -->
<g id="node2" class="node">
<title>PoolModule</title>
<polygon fill="#8dd3c7" stroke="black" points="191.73,-149.8 188.73,-153.8 167.73,-153.8 164.73,-149.8 106.27,-149.8 106.27,-113.8 191.73,-113.8 191.73,-149.8"/>
<text text-anchor="middle" x="149" y="-127.6" font-family="Times,serif" font-size="14.00">PoolModule</text>
</g>
<!-- PoolComponent&#45;&gt;PoolModule -->
<g id="edge1" class="edge">
<title>PoolComponent&#45;&gt;PoolModule</title>
<path fill="none" stroke="black" d="M118.94,-84.91C118.94,-84.91 118.94,-103.79 118.94,-103.79"/>
<polygon fill="black" stroke="black" points="115.44,-103.79 118.94,-113.79 122.44,-103.79 115.44,-103.79"/>
</g>
<!-- PoolRoutingModule -->
<g id="node3" class="node">
<title>PoolRoutingModule</title>
<polygon fill="#8dd3c7" stroke="black" points="286.35,-84.8 283.35,-88.8 262.35,-88.8 259.35,-84.8 155.65,-84.8 155.65,-48.8 286.35,-48.8 286.35,-84.8"/>
<text text-anchor="middle" x="221" y="-62.6" font-family="Times,serif" font-size="14.00">PoolRoutingModule</text>
</g>
<!-- PoolRoutingModule&#45;&gt;PoolModule -->
<g id="edge2" class="edge">
<title>PoolRoutingModule&#45;&gt;PoolModule</title>
<path fill="none" stroke="black" d="M173.72,-84.91C173.72,-84.91 173.72,-103.79 173.72,-103.79"/>
<polygon fill="black" stroke="black" points="170.22,-103.79 173.72,-113.79 177.22,-103.79 170.22,-103.79"/>
</g>
</g>
</svg>
