<?xml version="1.0" encoding="UTF-8" standalone="no"?>
<!DOCTYPE svg PUBLIC "-//W3C//DTD SVG 1.1//EN"
 "http://www.w3.org/Graphics/SVG/1.1/DTD/svg11.dtd">
<!-- Generated by graphviz version 3.0.0 (20220226.1711)
 -->
<!-- Title: dependencies Pages: 1 -->
<svg width="370pt" height="174pt"
 viewBox="0.00 0.00 370.00 173.80" xmlns="http://www.w3.org/2000/svg" xmlns:xlink="http://www.w3.org/1999/xlink">
<g id="graph0" class="graph" transform="scale(1 1) rotate(0) translate(4 169.8)">
<title>dependencies</title>
<polygon fill="white" stroke="transparent" points="-4,4 -4,-169.8 366,-169.8 366,4 -4,4"/>
<text text-anchor="middle" x="181" y="-8.2" font-family="sans-serif" font-size="14.00">dependencies</text>
<g id="clust1" class="cluster">
<title>cluster_WateringModule</title>
<polygon fill="none" stroke="black" stroke-dasharray="1,5" points="8,-32.8 8,-157.8 354,-157.8 354,-32.8 8,-32.8"/>
</g>
<g id="clust2" class="cluster">
<title>cluster_WateringModule_declarations</title>
<polygon fill="none" stroke="black" points="196,-40.8 196,-92.8 346,-92.8 346,-40.8 196,-40.8"/>
</g>
<g id="clust4" class="cluster">
<title>cluster_WateringModule_imports</title>
<polygon fill="none" stroke="black" points="16,-40.8 16,-92.8 188,-92.8 188,-40.8 16,-40.8"/>
</g>
<!-- WateringComponent -->
<g id="node1" class="node">
<title>WateringComponent</title>
<polygon fill="#ffffb3" stroke="black" points="337.91,-84.8 204.09,-84.8 204.09,-48.8 337.91,-48.8 337.91,-84.8"/>
<text text-anchor="middle" x="271" y="-62.6" font-family="Times,serif" font-size="14.00">WateringComponent</text>
</g>
<!-- WateringModule -->
<g id="node2" class="node">
<title>WateringModule</title>
<polygon fill="#8dd3c7" stroke="black" points="241.64,-149.8 238.64,-153.8 217.64,-153.8 214.64,-149.8 130.36,-149.8 130.36,-113.8 241.64,-113.8 241.64,-149.8"/>
<text text-anchor="middle" x="186" y="-127.6" font-family="Times,serif" font-size="14.00">WateringModule</text>
</g>
<!-- WateringComponent&#45;&gt;WateringModule -->
<g id="edge1" class="edge">
<title>WateringComponent&#45;&gt;WateringModule</title>
<path fill="none" stroke="black" d="M223.06,-84.91C223.06,-84.91 223.06,-103.79 223.06,-103.79"/>
<polygon fill="black" stroke="black" points="219.56,-103.79 223.06,-113.79 226.56,-103.79 219.56,-103.79"/>
</g>
<!-- WateringRoutingModule -->
<g id="node3" class="node">
<title>WateringRoutingModule</title>
<polygon fill="#8dd3c7" stroke="black" points="180.25,-84.8 177.25,-88.8 156.25,-88.8 153.25,-84.8 23.75,-84.8 23.75,-48.8 180.25,-48.8 180.25,-84.8"/>
<text text-anchor="middle" x="102" y="-62.6" font-family="Times,serif" font-size="14.00">WateringRoutingModule</text>
</g>
<!-- WateringRoutingModule&#45;&gt;WateringModule -->
<g id="edge2" class="edge">
<title>WateringRoutingModule&#45;&gt;WateringModule</title>
<path fill="none" stroke="black" d="M155.28,-84.91C155.28,-84.91 155.28,-103.79 155.28,-103.79"/>
<polygon fill="black" stroke="black" points="151.78,-103.79 155.28,-113.79 158.78,-103.79 151.78,-103.79"/>
</g>
</g>
</svg>
