<?xml version="1.0" encoding="UTF-8" standalone="no"?>
<!DOCTYPE svg PUBLIC "-//W3C//DTD SVG 1.1//EN"
 "http://www.w3.org/Graphics/SVG/1.1/DTD/svg11.dtd">
<!-- Generated by graphviz version 5.0.0 (20220707.1540)
 -->
<!-- Title: dependencies Pages: 1 -->
<svg width="506pt" height="174pt"
 viewBox="0.00 0.00 506.00 173.80" xmlns="http://www.w3.org/2000/svg" xmlns:xlink="http://www.w3.org/1999/xlink">
<g id="graph0" class="graph" transform="scale(1 1) rotate(0) translate(4 169.8)">
<title>dependencies</title>
<polygon fill="white" stroke="transparent" points="-4,4 -4,-169.8 502,-169.8 502,4 -4,4"/>
<text text-anchor="middle" x="249" y="-8.2" font-family="sans-serif" font-size="14.00">dependencies</text>
<g id="clust1" class="cluster">
<title>cluster_WateringModule</title>
<polygon fill="none" stroke="black" stroke-dasharray="1,5" points="8,-32.8 8,-157.8 490,-157.8 490,-32.8 8,-32.8"/>
</g>
<g id="clust4" class="cluster">
<title>cluster_WateringModule_imports</title>
<polygon fill="none" stroke="black" points="174,-40.8 174,-92.8 482,-92.8 482,-40.8 174,-40.8"/>
</g>
<g id="clust2" class="cluster">
<title>cluster_WateringModule_declarations</title>
<polygon fill="none" stroke="black" points="16,-40.8 16,-92.8 166,-92.8 166,-40.8 16,-40.8"/>
</g>
<!-- WateringComponent -->
<g id="node1" class="node">
<title>WateringComponent</title>
<polygon fill="#ffffb3" stroke="black" points="157.91,-84.8 24.09,-84.8 24.09,-48.8 157.91,-48.8 157.91,-84.8"/>
<text text-anchor="middle" x="91" y="-62.6" font-family="Times,serif" font-size="14.00">WateringComponent</text>
</g>
<!-- WateringModule -->
<g id="node2" class="node">
<title>WateringModule</title>
<polygon fill="#8dd3c7" stroke="black" points="315.64,-149.8 312.64,-153.8 291.64,-153.8 288.64,-149.8 204.36,-149.8 204.36,-113.8 315.64,-113.8 315.64,-149.8"/>
<text text-anchor="middle" x="260" y="-127.6" font-family="Times,serif" font-size="14.00">WateringModule</text>
</g>
<!-- WateringComponent&#45;&gt;WateringModule -->
<g id="edge1" class="edge">
<title>WateringComponent&#45;&gt;WateringModule</title>
<path fill="none" stroke="black" d="M91,-84.91C91,-104.14 91,-131.8 91,-131.8 91,-131.8 194.19,-131.8 194.19,-131.8"/>
<polygon fill="black" stroke="black" points="194.19,-135.3 204.19,-131.8 194.19,-128.3 194.19,-135.3"/>
</g>
<!-- DirectivesModule -->
<g id="node3" class="node">
<title>DirectivesModule</title>
<polygon fill="#8dd3c7" stroke="black" points="473.58,-84.8 470.58,-88.8 449.58,-88.8 446.58,-84.8 356.42,-84.8 356.42,-48.8 473.58,-48.8 473.58,-84.8"/>
<text text-anchor="middle" x="415" y="-62.6" font-family="Times,serif" font-size="14.00">DirectivesModule</text>
</g>
<!-- DirectivesModule&#45;&gt;WateringModule -->
<g id="edge2" class="edge">
<title>DirectivesModule&#45;&gt;WateringModule</title>
<path fill="none" stroke="black" d="M415,-84.91C415,-104.14 415,-131.8 415,-131.8 415,-131.8 325.96,-131.8 325.96,-131.8"/>
<polygon fill="black" stroke="black" points="325.96,-128.3 315.96,-131.8 325.96,-135.3 325.96,-128.3"/>
</g>
<!-- WateringRoutingModule -->
<g id="node4" class="node">
<title>WateringRoutingModule</title>
<polygon fill="#8dd3c7" stroke="black" points="338.25,-84.8 335.25,-88.8 314.25,-88.8 311.25,-84.8 181.75,-84.8 181.75,-48.8 338.25,-48.8 338.25,-84.8"/>
<text text-anchor="middle" x="260" y="-62.6" font-family="Times,serif" font-size="14.00">WateringRoutingModule</text>
</g>
<!-- WateringRoutingModule&#45;&gt;WateringModule -->
<g id="edge3" class="edge">
<title>WateringRoutingModule&#45;&gt;WateringModule</title>
<path fill="none" stroke="black" d="M260,-84.91C260,-84.91 260,-103.79 260,-103.79"/>
<polygon fill="black" stroke="black" points="256.5,-103.79 260,-113.79 263.5,-103.79 256.5,-103.79"/>
</g>
</g>
</svg>
