<?xml version="1.0" encoding="UTF-8" standalone="no"?>
<!DOCTYPE svg PUBLIC "-//W3C//DTD SVG 1.1//EN"
 "http://www.w3.org/Graphics/SVG/1.1/DTD/svg11.dtd">
<!-- Generated by graphviz version 3.0.0 (20220226.1711)
 -->
<!-- Title: dependencies Pages: 1 -->
<svg width="330pt" height="174pt"
 viewBox="0.00 0.00 330.00 173.80" xmlns="http://www.w3.org/2000/svg" xmlns:xlink="http://www.w3.org/1999/xlink">
<g id="graph0" class="graph" transform="scale(1 1) rotate(0) translate(4 169.8)">
<title>dependencies</title>
<polygon fill="white" stroke="transparent" points="-4,4 -4,-169.8 326,-169.8 326,4 -4,4"/>
<text text-anchor="middle" x="161" y="-8.2" font-family="sans-serif" font-size="14.00">dependencies</text>
<g id="clust1" class="cluster">
<title>cluster_ProfilModule</title>
<polygon fill="none" stroke="black" stroke-dasharray="1,5" points="8,-32.8 8,-157.8 314,-157.8 314,-32.8 8,-32.8"/>
</g>
<g id="clust2" class="cluster">
<title>cluster_ProfilModule_declarations</title>
<polygon fill="none" stroke="black" points="176,-40.8 176,-92.8 306,-92.8 306,-40.8 176,-40.8"/>
</g>
<g id="clust4" class="cluster">
<title>cluster_ProfilModule_imports</title>
<polygon fill="none" stroke="black" points="16,-40.8 16,-92.8 168,-92.8 168,-40.8 16,-40.8"/>
</g>
<!-- ProfilComponent -->
<g id="node1" class="node">
<title>ProfilComponent</title>
<polygon fill="#ffffb3" stroke="black" points="297.72,-84.8 184.28,-84.8 184.28,-48.8 297.72,-48.8 297.72,-84.8"/>
<text text-anchor="middle" x="241" y="-62.6" font-family="Times,serif" font-size="14.00">ProfilComponent</text>
</g>
<!-- ProfilModule -->
<g id="node2" class="node">
<title>ProfilModule</title>
<polygon fill="#8dd3c7" stroke="black" points="211.94,-149.8 208.94,-153.8 187.94,-153.8 184.94,-149.8 120.06,-149.8 120.06,-113.8 211.94,-113.8 211.94,-149.8"/>
<text text-anchor="middle" x="166" y="-127.6" font-family="Times,serif" font-size="14.00">ProfilModule</text>
</g>
<!-- ProfilComponent&#45;&gt;ProfilModule -->
<g id="edge1" class="edge">
<title>ProfilComponent&#45;&gt;ProfilModule</title>
<path fill="none" stroke="black" d="M198.06,-84.91C198.06,-84.91 198.06,-103.79 198.06,-103.79"/>
<polygon fill="black" stroke="black" points="194.56,-103.79 198.06,-113.79 201.56,-103.79 194.56,-103.79"/>
</g>
<!-- ProfilRoutingModule -->
<g id="node3" class="node">
<title>ProfilRoutingModule</title>
<polygon fill="#8dd3c7" stroke="black" points="160.06,-84.8 157.06,-88.8 136.06,-88.8 133.06,-84.8 23.94,-84.8 23.94,-48.8 160.06,-48.8 160.06,-84.8"/>
<text text-anchor="middle" x="92" y="-62.6" font-family="Times,serif" font-size="14.00">ProfilRoutingModule</text>
</g>
<!-- ProfilRoutingModule&#45;&gt;ProfilModule -->
<g id="edge2" class="edge">
<title>ProfilRoutingModule&#45;&gt;ProfilModule</title>
<path fill="none" stroke="black" d="M140.28,-84.91C140.28,-84.91 140.28,-103.79 140.28,-103.79"/>
<polygon fill="black" stroke="black" points="136.78,-103.79 140.28,-113.79 143.78,-103.79 136.78,-103.79"/>
</g>
</g>
</svg>
