<?xml version="1.0" encoding="UTF-8" standalone="no"?>
<!DOCTYPE svg PUBLIC "-//W3C//DTD SVG 1.1//EN"
 "http://www.w3.org/Graphics/SVG/1.1/DTD/svg11.dtd">
<!-- Generated by graphviz version 5.0.0 (20220707.1540)
 -->
<!-- Title: dependencies Pages: 1 -->
<svg width="466pt" height="174pt"
 viewBox="0.00 0.00 466.00 173.80" xmlns="http://www.w3.org/2000/svg" xmlns:xlink="http://www.w3.org/1999/xlink">
<g id="graph0" class="graph" transform="scale(1 1) rotate(0) translate(4 169.8)">
<title>dependencies</title>
<polygon fill="white" stroke="transparent" points="-4,4 -4,-169.8 462,-169.8 462,4 -4,4"/>
<text text-anchor="middle" x="229" y="-8.2" font-family="sans-serif" font-size="14.00">dependencies</text>
<g id="clust1" class="cluster">
<title>cluster_ProfilModule</title>
<polygon fill="none" stroke="black" stroke-dasharray="1,5" points="8,-32.8 8,-157.8 450,-157.8 450,-32.8 8,-32.8"/>
</g>
<g id="clust2" class="cluster">
<title>cluster_ProfilModule_declarations</title>
<polygon fill="none" stroke="black" points="312,-40.8 312,-92.8 442,-92.8 442,-40.8 312,-40.8"/>
</g>
<g id="clust4" class="cluster">
<title>cluster_ProfilModule_imports</title>
<polygon fill="none" stroke="black" points="16,-40.8 16,-92.8 304,-92.8 304,-40.8 16,-40.8"/>
</g>
<!-- ProfilComponent -->
<g id="node1" class="node">
<title>ProfilComponent</title>
<polygon fill="#ffffb3" stroke="black" points="433.72,-84.8 320.28,-84.8 320.28,-48.8 433.72,-48.8 433.72,-84.8"/>
<text text-anchor="middle" x="377" y="-62.6" font-family="Times,serif" font-size="14.00">ProfilComponent</text>
</g>
<!-- ProfilModule -->
<g id="node2" class="node">
<title>ProfilModule</title>
<polygon fill="#8dd3c7" stroke="black" points="282.94,-149.8 279.94,-153.8 258.94,-153.8 255.94,-149.8 191.06,-149.8 191.06,-113.8 282.94,-113.8 282.94,-149.8"/>
<text text-anchor="middle" x="237" y="-127.6" font-family="Times,serif" font-size="14.00">ProfilModule</text>
</g>
<!-- ProfilComponent&#45;&gt;ProfilModule -->
<g id="edge1" class="edge">
<title>ProfilComponent&#45;&gt;ProfilModule</title>
<path fill="none" stroke="black" d="M377,-84.91C377,-104.14 377,-131.8 377,-131.8 377,-131.8 292.84,-131.8 292.84,-131.8"/>
<polygon fill="black" stroke="black" points="292.84,-128.3 282.84,-131.8 292.84,-135.3 292.84,-128.3"/>
</g>
<!-- DirectivesModule -->
<g id="node3" class="node">
<title>DirectivesModule</title>
<polygon fill="#8dd3c7" stroke="black" points="295.58,-84.8 292.58,-88.8 271.58,-88.8 268.58,-84.8 178.42,-84.8 178.42,-48.8 295.58,-48.8 295.58,-84.8"/>
<text text-anchor="middle" x="237" y="-62.6" font-family="Times,serif" font-size="14.00">DirectivesModule</text>
</g>
<!-- DirectivesModule&#45;&gt;ProfilModule -->
<g id="edge2" class="edge">
<title>DirectivesModule&#45;&gt;ProfilModule</title>
<path fill="none" stroke="black" d="M237,-84.91C237,-84.91 237,-103.79 237,-103.79"/>
<polygon fill="black" stroke="black" points="233.5,-103.79 237,-113.79 240.5,-103.79 233.5,-103.79"/>
</g>
<!-- ProfilRoutingModule -->
<g id="node4" class="node">
<title>ProfilRoutingModule</title>
<polygon fill="#8dd3c7" stroke="black" points="160.06,-84.8 157.06,-88.8 136.06,-88.8 133.06,-84.8 23.94,-84.8 23.94,-48.8 160.06,-48.8 160.06,-84.8"/>
<text text-anchor="middle" x="92" y="-62.6" font-family="Times,serif" font-size="14.00">ProfilRoutingModule</text>
</g>
<!-- ProfilRoutingModule&#45;&gt;ProfilModule -->
<g id="edge3" class="edge">
<title>ProfilRoutingModule&#45;&gt;ProfilModule</title>
<path fill="none" stroke="black" d="M92,-84.91C92,-104.14 92,-131.8 92,-131.8 92,-131.8 181.12,-131.8 181.12,-131.8"/>
<polygon fill="black" stroke="black" points="181.12,-135.3 191.12,-131.8 181.12,-128.3 181.12,-135.3"/>
</g>
</g>
</svg>
