<?xml version="1.0" encoding="UTF-8" standalone="no"?>
<!DOCTYPE svg PUBLIC "-//W3C//DTD SVG 1.1//EN"
 "http://www.w3.org/Graphics/SVG/1.1/DTD/svg11.dtd">
<!-- Generated by graphviz version 3.0.0 (20220226.1711)
 -->
<!-- Title: dependencies Pages: 1 -->
<svg width="3709pt" height="247pt"
 viewBox="0.00 0.00 3709.00 246.80" xmlns="http://www.w3.org/2000/svg" xmlns:xlink="http://www.w3.org/1999/xlink">
<g id="graph0" class="graph" transform="scale(1 1) rotate(0) translate(4 242.8)">
<title>dependencies</title>
<polygon fill="white" stroke="transparent" points="-4,4 -4,-242.8 3705,-242.8 3705,4 -4,4"/>
<text text-anchor="middle" x="1850.5" y="-8.2" font-family="sans-serif" font-size="14.00">dependencies</text>
<g id="clust1" class="cluster">
<title>cluster_AppModule</title>
<polygon fill="none" stroke="black" stroke-dasharray="1,5" points="8,-32.8 8,-230.8 562,-230.8 562,-32.8 8,-32.8"/>
</g>
<g id="clust2" class="cluster">
<title>cluster_AppModule_declarations</title>
<polygon fill="none" stroke="black" points="168,-40.8 168,-92.8 554,-92.8 554,-40.8 168,-40.8"/>
</g>
<g id="clust6" class="cluster">
<title>cluster_AppModule_imports</title>
<polygon fill="none" stroke="black" points="16,-40.8 16,-92.8 160,-92.8 160,-40.8 16,-40.8"/>
</g>
<g id="clust8" class="cluster">
<title>cluster_AppModule_bootstrap</title>
<polygon fill="none" stroke="black" points="239,-170.8 239,-222.8 363,-222.8 363,-170.8 239,-170.8"/>
</g>
<g id="clust16" class="cluster">
<title>cluster_EasygardenModule</title>
<polygon fill="none" stroke="black" stroke-dasharray="1,5" points="570,-32.8 570,-157.8 1057,-157.8 1057,-32.8 570,-32.8"/>
</g>
<g id="clust17" class="cluster">
<title>cluster_EasygardenModule_declarations</title>
<polygon fill="none" stroke="black" points="772,-40.8 772,-92.8 1049,-92.8 1049,-40.8 772,-40.8"/>
</g>
<g id="clust20" class="cluster">
<title>cluster_EasygardenModule_imports</title>
<polygon fill="none" stroke="black" points="578,-40.8 578,-92.8 764,-92.8 764,-40.8 578,-40.8"/>
</g>
<g id="clust30" class="cluster">
<title>cluster_LawnmowerModule</title>
<polygon fill="none" stroke="black" stroke-dasharray="1,5" points="1065,-32.8 1065,-157.8 1449,-157.8 1449,-32.8 1065,-32.8"/>
</g>
<g id="clust31" class="cluster">
<title>cluster_LawnmowerModule_declarations</title>
<polygon fill="none" stroke="black" points="1273,-40.8 1273,-92.8 1441,-92.8 1441,-40.8 1273,-40.8"/>
</g>
<g id="clust33" class="cluster">
<title>cluster_LawnmowerModule_imports</title>
<polygon fill="none" stroke="black" points="1073,-40.8 1073,-92.8 1265,-92.8 1265,-40.8 1073,-40.8"/>
</g>
<g id="clust43" class="cluster">
<title>cluster_LightningModule</title>
<polygon fill="none" stroke="black" stroke-dasharray="1,5" points="1457,-32.8 1457,-157.8 1809,-157.8 1809,-32.8 1457,-32.8"/>
</g>
<g id="clust44" class="cluster">
<title>cluster_LightningModule_declarations</title>
<polygon fill="none" stroke="black" points="1649,-40.8 1649,-92.8 1801,-92.8 1801,-40.8 1649,-40.8"/>
</g>
<g id="clust46" class="cluster">
<title>cluster_LightningModule_imports</title>
<polygon fill="none" stroke="black" points="1465,-40.8 1465,-92.8 1641,-92.8 1641,-40.8 1465,-40.8"/>
</g>
<g id="clust56" class="cluster">
<title>cluster_PoolModule</title>
<polygon fill="none" stroke="black" stroke-dasharray="1,5" points="1817,-32.8 1817,-157.8 2111,-157.8 2111,-32.8 1817,-32.8"/>
</g>
<g id="clust57" class="cluster">
<title>cluster_PoolModule_declarations</title>
<polygon fill="none" stroke="black" points="1979,-40.8 1979,-92.8 2103,-92.8 2103,-40.8 1979,-40.8"/>
</g>
<g id="clust59" class="cluster">
<title>cluster_PoolModule_imports</title>
<polygon fill="none" stroke="black" points="1825,-40.8 1825,-92.8 1971,-92.8 1971,-40.8 1825,-40.8"/>
</g>
<g id="clust69" class="cluster">
<title>cluster_PortalModule</title>
<polygon fill="none" stroke="black" stroke-dasharray="1,5" points="2119,-32.8 2119,-157.8 2427,-157.8 2427,-32.8 2119,-32.8"/>
</g>
<g id="clust70" class="cluster">
<title>cluster_PortalModule_declarations</title>
<polygon fill="none" stroke="black" points="2289,-40.8 2289,-92.8 2419,-92.8 2419,-40.8 2289,-40.8"/>
</g>
<g id="clust72" class="cluster">
<title>cluster_PortalModule_imports</title>
<polygon fill="none" stroke="black" points="2127,-40.8 2127,-92.8 2281,-92.8 2281,-40.8 2127,-40.8"/>
</g>
<g id="clust82" class="cluster">
<title>cluster_ProfilModule</title>
<polygon fill="none" stroke="black" stroke-dasharray="1,5" points="2435,-32.8 2435,-157.8 2741,-157.8 2741,-32.8 2435,-32.8"/>
</g>
<g id="clust83" class="cluster">
<title>cluster_ProfilModule_declarations</title>
<polygon fill="none" stroke="black" points="2603,-40.8 2603,-92.8 2733,-92.8 2733,-40.8 2603,-40.8"/>
</g>
<g id="clust85" class="cluster">
<title>cluster_ProfilModule_imports</title>
<polygon fill="none" stroke="black" points="2443,-40.8 2443,-92.8 2595,-92.8 2595,-40.8 2443,-40.8"/>
</g>
<g id="clust95" class="cluster">
<title>cluster_PublicModule</title>
<polygon fill="none" stroke="black" stroke-dasharray="1,5" points="2749,-32.8 2749,-157.8 3339,-157.8 3339,-32.8 2749,-32.8"/>
</g>
<g id="clust96" class="cluster">
<title>cluster_PublicModule_declarations</title>
<polygon fill="none" stroke="black" points="2921,-40.8 2921,-92.8 3331,-92.8 3331,-40.8 2921,-40.8"/>
</g>
<g id="clust100" class="cluster">
<title>cluster_PublicModule_imports</title>
<polygon fill="none" stroke="black" points="2757,-40.8 2757,-92.8 2913,-92.8 2913,-40.8 2757,-40.8"/>
</g>
<g id="clust110" class="cluster">
<title>cluster_WateringModule</title>
<polygon fill="none" stroke="black" stroke-dasharray="1,5" points="3347,-32.8 3347,-157.8 3693,-157.8 3693,-32.8 3347,-32.8"/>
</g>
<g id="clust111" class="cluster">
<title>cluster_WateringModule_declarations</title>
<polygon fill="none" stroke="black" points="3535,-40.8 3535,-92.8 3685,-92.8 3685,-40.8 3535,-40.8"/>
</g>
<g id="clust113" class="cluster">
<title>cluster_WateringModule_imports</title>
<polygon fill="none" stroke="black" points="3355,-40.8 3355,-92.8 3527,-92.8 3527,-40.8 3355,-40.8"/>
</g>
<!-- AppComponent -->
<g id="node1" class="node">
<title>AppComponent</title>
<polygon fill="#ffffb3" stroke="black" points="545.94,-84.8 440.06,-84.8 440.06,-48.8 545.94,-48.8 545.94,-84.8"/>
<text text-anchor="middle" x="493" y="-62.6" font-family="Times,serif" font-size="14.00">AppComponent</text>
</g>
<!-- AppModule -->
<g id="node4" class="node">
<title>AppModule</title>
<polygon fill="#8dd3c7" stroke="black" points="342.66,-149.8 339.66,-153.8 318.66,-153.8 315.66,-149.8 259.34,-149.8 259.34,-113.8 342.66,-113.8 342.66,-149.8"/>
<text text-anchor="middle" x="301" y="-127.6" font-family="Times,serif" font-size="14.00">AppModule</text>
</g>
<!-- AppComponent&#45;&gt;AppModule -->
<g id="edge1" class="edge">
<title>AppComponent&#45;&gt;AppModule</title>
<path fill="none" stroke="black" d="M493,-84.82C493,-102.17 493,-125.8 493,-125.8 493,-125.8 353.14,-125.8 353.14,-125.8"/>
<polygon fill="black" stroke="black" points="353.14,-122.3 343.14,-125.8 353.14,-129.3 353.14,-122.3"/>
</g>
<!-- ErrorComponent -->
<g id="node2" class="node">
<title>ErrorComponent</title>
<polygon fill="#ffffb3" stroke="black" points="422.37,-84.8 311.63,-84.8 311.63,-48.8 422.37,-48.8 422.37,-84.8"/>
<text text-anchor="middle" x="367" y="-62.6" font-family="Times,serif" font-size="14.00">ErrorComponent</text>
</g>
<!-- ErrorComponent&#45;&gt;AppModule -->
<g id="edge2" class="edge">
<title>ErrorComponent&#45;&gt;AppModule</title>
<path fill="none" stroke="black" d="M327.2,-84.91C327.2,-84.91 327.2,-103.79 327.2,-103.79"/>
<polygon fill="black" stroke="black" points="323.7,-103.79 327.2,-113.79 330.7,-103.79 323.7,-103.79"/>
</g>
<!-- FooterComponent -->
<g id="node3" class="node">
<title>FooterComponent</title>
<polygon fill="#ffffb3" stroke="black" points="293.88,-84.8 176.12,-84.8 176.12,-48.8 293.88,-48.8 293.88,-84.8"/>
<text text-anchor="middle" x="235" y="-62.6" font-family="Times,serif" font-size="14.00">FooterComponent</text>
</g>
<!-- FooterComponent&#45;&gt;AppModule -->
<g id="edge3" class="edge">
<title>FooterComponent&#45;&gt;AppModule</title>
<path fill="none" stroke="black" d="M276.56,-84.91C276.56,-84.91 276.56,-103.79 276.56,-103.79"/>
<polygon fill="black" stroke="black" points="273.06,-103.79 276.56,-113.79 280.06,-103.79 273.06,-103.79"/>
</g>
<!-- AppComponent  -->
<g id="node6" class="node">
<title>AppComponent </title>
<polygon fill="#80b1d3" stroke="black" points="355.44,-214.8 246.56,-214.8 246.56,-178.8 355.44,-178.8 355.44,-214.8"/>
<text text-anchor="middle" x="301" y="-192.6" font-family="Times,serif" font-size="14.00">AppComponent </text>
</g>
<!-- AppModule&#45;&gt;AppComponent  -->
<g id="edge5" class="edge">
<title>AppModule&#45;&gt;AppComponent </title>
<path fill="none" stroke="black" stroke-dasharray="1,5" d="M301,-149.91C301,-149.91 301,-168.79 301,-168.79"/>
<polygon fill="black" stroke="black" points="297.5,-168.79 301,-178.79 304.5,-168.79 297.5,-168.79"/>
</g>
<!-- AppRoutingModule -->
<g id="node5" class="node">
<title>AppRoutingModule</title>
<polygon fill="#8dd3c7" stroke="black" points="152.28,-84.8 149.28,-88.8 128.28,-88.8 125.28,-84.8 23.72,-84.8 23.72,-48.8 152.28,-48.8 152.28,-84.8"/>
<text text-anchor="middle" x="88" y="-62.6" font-family="Times,serif" font-size="14.00">AppRoutingModule</text>
</g>
<!-- AppRoutingModule&#45;&gt;AppModule -->
<g id="edge4" class="edge">
<title>AppRoutingModule&#45;&gt;AppModule</title>
<path fill="none" stroke="black" d="M88,-84.91C88,-104.14 88,-131.8 88,-131.8 88,-131.8 249.17,-131.8 249.17,-131.8"/>
<polygon fill="black" stroke="black" points="249.17,-135.3 259.17,-131.8 249.17,-128.3 249.17,-135.3"/>
</g>
<!-- LayoutComponent -->
<g id="node7" class="node">
<title>LayoutComponent</title>
<polygon fill="#ffffb3" stroke="black" points="1041.49,-84.8 920.51,-84.8 920.51,-48.8 1041.49,-48.8 1041.49,-84.8"/>
<text text-anchor="middle" x="981" y="-62.6" font-family="Times,serif" font-size="14.00">LayoutComponent</text>
</g>
<!-- EasygardenModule -->
<g id="node9" class="node">
<title>EasygardenModule</title>
<polygon fill="#8dd3c7" stroke="black" points="903.36,-149.8 900.36,-153.8 879.36,-153.8 876.36,-149.8 778.64,-149.8 778.64,-113.8 903.36,-113.8 903.36,-149.8"/>
<text text-anchor="middle" x="841" y="-127.6" font-family="Times,serif" font-size="14.00">EasygardenModule</text>
</g>
<!-- LayoutComponent&#45;&gt;EasygardenModule -->
<g id="edge6" class="edge">
<title>LayoutComponent&#45;&gt;EasygardenModule</title>
<path fill="none" stroke="black" d="M981,-84.91C981,-104.14 981,-131.8 981,-131.8 981,-131.8 913.63,-131.8 913.63,-131.8"/>
<polygon fill="black" stroke="black" points="913.63,-128.3 903.63,-131.8 913.63,-135.3 913.63,-128.3"/>
</g>
<!-- NavbarComponent -->
<g id="node8" class="node">
<title>NavbarComponent</title>
<polygon fill="#ffffb3" stroke="black" points="902.03,-84.8 779.97,-84.8 779.97,-48.8 902.03,-48.8 902.03,-84.8"/>
<text text-anchor="middle" x="841" y="-62.6" font-family="Times,serif" font-size="14.00">NavbarComponent</text>
</g>
<!-- NavbarComponent&#45;&gt;EasygardenModule -->
<g id="edge7" class="edge">
<title>NavbarComponent&#45;&gt;EasygardenModule</title>
<path fill="none" stroke="black" d="M841,-84.91C841,-84.91 841,-103.79 841,-103.79"/>
<polygon fill="black" stroke="black" points="837.5,-103.79 841,-113.79 844.5,-103.79 837.5,-103.79"/>
</g>
<!-- EasygardenRoutingModule -->
<g id="node10" class="node">
<title>EasygardenRoutingModule</title>
<polygon fill="#8dd3c7" stroke="black" points="755.97,-84.8 752.97,-88.8 731.97,-88.8 728.97,-84.8 586.03,-84.8 586.03,-48.8 755.97,-48.8 755.97,-84.8"/>
<text text-anchor="middle" x="671" y="-62.6" font-family="Times,serif" font-size="14.00">EasygardenRoutingModule</text>
</g>
<!-- EasygardenRoutingModule&#45;&gt;EasygardenModule -->
<g id="edge8" class="edge">
<title>EasygardenRoutingModule&#45;&gt;EasygardenModule</title>
<path fill="none" stroke="black" d="M671,-85.08C671,-106.12 671,-137.8 671,-137.8 671,-137.8 768.18,-137.8 768.18,-137.8"/>
<polygon fill="black" stroke="black" points="768.18,-141.3 778.18,-137.8 768.18,-134.3 768.18,-141.3"/>
</g>
<!-- LawnmowerComponent -->
<g id="node11" class="node">
<title>LawnmowerComponent</title>
<polygon fill="#ffffb3" stroke="black" points="1433.08,-84.8 1280.92,-84.8 1280.92,-48.8 1433.08,-48.8 1433.08,-84.8"/>
<text text-anchor="middle" x="1357" y="-62.6" font-family="Times,serif" font-size="14.00">LawnmowerComponent</text>
</g>
<!-- LawnmowerModule -->
<g id="node12" class="node">
<title>LawnmowerModule</title>
<polygon fill="#8dd3c7" stroke="black" points="1328.3,-149.8 1325.3,-153.8 1304.3,-153.8 1301.3,-149.8 1197.7,-149.8 1197.7,-113.8 1328.3,-113.8 1328.3,-149.8"/>
<text text-anchor="middle" x="1263" y="-127.6" font-family="Times,serif" font-size="14.00">LawnmowerModule</text>
</g>
<!-- LawnmowerComponent&#45;&gt;LawnmowerModule -->
<g id="edge9" class="edge">
<title>LawnmowerComponent&#45;&gt;LawnmowerModule</title>
<path fill="none" stroke="black" d="M1304.56,-84.91C1304.56,-84.91 1304.56,-103.79 1304.56,-103.79"/>
<polygon fill="black" stroke="black" points="1301.06,-103.79 1304.56,-113.79 1308.06,-103.79 1301.06,-103.79"/>
</g>
<!-- LawnmowerRoutingModule -->
<g id="node13" class="node">
<title>LawnmowerRoutingModule</title>
<polygon fill="#8dd3c7" stroke="black" points="1256.92,-84.8 1253.92,-88.8 1232.92,-88.8 1229.92,-84.8 1081.08,-84.8 1081.08,-48.8 1256.92,-48.8 1256.92,-84.8"/>
<text text-anchor="middle" x="1169" y="-62.6" font-family="Times,serif" font-size="14.00">LawnmowerRoutingModule</text>
</g>
<!-- LawnmowerRoutingModule&#45;&gt;LawnmowerModule -->
<g id="edge10" class="edge">
<title>LawnmowerRoutingModule&#45;&gt;LawnmowerModule</title>
<path fill="none" stroke="black" d="M1227.28,-84.91C1227.28,-84.91 1227.28,-103.79 1227.28,-103.79"/>
<polygon fill="black" stroke="black" points="1223.78,-103.79 1227.28,-113.79 1230.78,-103.79 1223.78,-103.79"/>
</g>
<!-- LightningComponent -->
<g id="node14" class="node">
<title>LightningComponent</title>
<polygon fill="#ffffb3" stroke="black" points="1793.05,-84.8 1656.95,-84.8 1656.95,-48.8 1793.05,-48.8 1793.05,-84.8"/>
<text text-anchor="middle" x="1725" y="-62.6" font-family="Times,serif" font-size="14.00">LightningComponent</text>
</g>
<!-- LightningModule -->
<g id="node15" class="node">
<title>LightningModule</title>
<polygon fill="#8dd3c7" stroke="black" points="1696.27,-149.8 1693.27,-153.8 1672.27,-153.8 1669.27,-149.8 1581.73,-149.8 1581.73,-113.8 1696.27,-113.8 1696.27,-149.8"/>
<text text-anchor="middle" x="1639" y="-127.6" font-family="Times,serif" font-size="14.00">LightningModule</text>
</g>
<!-- LightningComponent&#45;&gt;LightningModule -->
<g id="edge11" class="edge">
<title>LightningComponent&#45;&gt;LightningModule</title>
<path fill="none" stroke="black" d="M1676.56,-84.91C1676.56,-84.91 1676.56,-103.79 1676.56,-103.79"/>
<polygon fill="black" stroke="black" points="1673.06,-103.79 1676.56,-113.79 1680.06,-103.79 1673.06,-103.79"/>
</g>
<!-- LightningRoutingModule -->
<g id="node16" class="node">
<title>LightningRoutingModule</title>
<polygon fill="#8dd3c7" stroke="black" points="1632.89,-84.8 1629.89,-88.8 1608.89,-88.8 1605.89,-84.8 1473.11,-84.8 1473.11,-48.8 1632.89,-48.8 1632.89,-84.8"/>
<text text-anchor="middle" x="1553" y="-62.6" font-family="Times,serif" font-size="14.00">LightningRoutingModule</text>
</g>
<!-- LightningRoutingModule&#45;&gt;LightningModule -->
<g id="edge12" class="edge">
<title>LightningRoutingModule&#45;&gt;LightningModule</title>
<path fill="none" stroke="black" d="M1607.28,-84.91C1607.28,-84.91 1607.28,-103.79 1607.28,-103.79"/>
<polygon fill="black" stroke="black" points="1603.78,-103.79 1607.28,-113.79 1610.78,-103.79 1603.78,-103.79"/>
</g>
<!-- PoolComponent -->
<g id="node17" class="node">
<title>PoolComponent</title>
<polygon fill="#ffffb3" stroke="black" points="2094.51,-84.8 1987.49,-84.8 1987.49,-48.8 2094.51,-48.8 2094.51,-84.8"/>
<text text-anchor="middle" x="2041" y="-62.6" font-family="Times,serif" font-size="14.00">PoolComponent</text>
</g>
<!-- PoolModule -->
<g id="node18" class="node">
<title>PoolModule</title>
<polygon fill="#8dd3c7" stroke="black" points="2011.73,-149.8 2008.73,-153.8 1987.73,-153.8 1984.73,-149.8 1926.27,-149.8 1926.27,-113.8 2011.73,-113.8 2011.73,-149.8"/>
<text text-anchor="middle" x="1969" y="-127.6" font-family="Times,serif" font-size="14.00">PoolModule</text>
</g>
<!-- PoolComponent&#45;&gt;PoolModule -->
<g id="edge13" class="edge">
<title>PoolComponent&#45;&gt;PoolModule</title>
<path fill="none" stroke="black" d="M1999.56,-84.91C1999.56,-84.91 1999.56,-103.79 1999.56,-103.79"/>
<polygon fill="black" stroke="black" points="1996.06,-103.79 1999.56,-113.79 2003.06,-103.79 1996.06,-103.79"/>
</g>
<!-- PoolRoutingModule -->
<g id="node19" class="node">
<title>PoolRoutingModule</title>
<polygon fill="#8dd3c7" stroke="black" points="1963.35,-84.8 1960.35,-88.8 1939.35,-88.8 1936.35,-84.8 1832.65,-84.8 1832.65,-48.8 1963.35,-48.8 1963.35,-84.8"/>
<text text-anchor="middle" x="1898" y="-62.6" font-family="Times,serif" font-size="14.00">PoolRoutingModule</text>
</g>
<!-- PoolRoutingModule&#45;&gt;PoolModule -->
<g id="edge14" class="edge">
<title>PoolRoutingModule&#45;&gt;PoolModule</title>
<path fill="none" stroke="black" d="M1944.78,-84.91C1944.78,-84.91 1944.78,-103.79 1944.78,-103.79"/>
<polygon fill="black" stroke="black" points="1941.28,-103.79 1944.78,-113.79 1948.28,-103.79 1941.28,-103.79"/>
</g>
<!-- PortalComponent -->
<g id="node20" class="node">
<title>PortalComponent</title>
<polygon fill="#ffffb3" stroke="black" points="2411.27,-84.8 2296.73,-84.8 2296.73,-48.8 2411.27,-48.8 2411.27,-84.8"/>
<text text-anchor="middle" x="2354" y="-62.6" font-family="Times,serif" font-size="14.00">PortalComponent</text>
</g>
<!-- PortalModule -->
<g id="node21" class="node">
<title>PortalModule</title>
<polygon fill="#8dd3c7" stroke="black" points="2325.49,-149.8 2322.49,-153.8 2301.49,-153.8 2298.49,-149.8 2232.51,-149.8 2232.51,-113.8 2325.49,-113.8 2325.49,-149.8"/>
<text text-anchor="middle" x="2279" y="-127.6" font-family="Times,serif" font-size="14.00">PortalModule</text>
</g>
<!-- PortalComponent&#45;&gt;PortalModule -->
<g id="edge15" class="edge">
<title>PortalComponent&#45;&gt;PortalModule</title>
<path fill="none" stroke="black" d="M2311.06,-84.91C2311.06,-84.91 2311.06,-103.79 2311.06,-103.79"/>
<polygon fill="black" stroke="black" points="2307.56,-103.79 2311.06,-113.79 2314.56,-103.79 2307.56,-103.79"/>
</g>
<!-- PortalRoutingModule -->
<g id="node22" class="node">
<title>PortalRoutingModule</title>
<polygon fill="#8dd3c7" stroke="black" points="2273.11,-84.8 2270.11,-88.8 2249.11,-88.8 2246.11,-84.8 2134.89,-84.8 2134.89,-48.8 2273.11,-48.8 2273.11,-84.8"/>
<text text-anchor="middle" x="2204" y="-62.6" font-family="Times,serif" font-size="14.00">PortalRoutingModule</text>
</g>
<!-- PortalRoutingModule&#45;&gt;PortalModule -->
<g id="edge16" class="edge">
<title>PortalRoutingModule&#45;&gt;PortalModule</title>
<path fill="none" stroke="black" d="M2252.78,-84.91C2252.78,-84.91 2252.78,-103.79 2252.78,-103.79"/>
<polygon fill="black" stroke="black" points="2249.28,-103.79 2252.78,-113.79 2256.28,-103.79 2249.28,-103.79"/>
</g>
<!-- ProfilComponent -->
<g id="node23" class="node">
<title>ProfilComponent</title>
<polygon fill="#ffffb3" stroke="black" points="2724.72,-84.8 2611.28,-84.8 2611.28,-48.8 2724.72,-48.8 2724.72,-84.8"/>
<text text-anchor="middle" x="2668" y="-62.6" font-family="Times,serif" font-size="14.00">ProfilComponent</text>
</g>
<!-- ProfilModule -->
<g id="node24" class="node">
<title>ProfilModule</title>
<polygon fill="#8dd3c7" stroke="black" points="2638.94,-149.8 2635.94,-153.8 2614.94,-153.8 2611.94,-149.8 2547.06,-149.8 2547.06,-113.8 2638.94,-113.8 2638.94,-149.8"/>
<text text-anchor="middle" x="2593" y="-127.6" font-family="Times,serif" font-size="14.00">ProfilModule</text>
</g>
<!-- ProfilComponent&#45;&gt;ProfilModule -->
<g id="edge17" class="edge">
<title>ProfilComponent&#45;&gt;ProfilModule</title>
<path fill="none" stroke="black" d="M2625.06,-84.91C2625.06,-84.91 2625.06,-103.79 2625.06,-103.79"/>
<polygon fill="black" stroke="black" points="2621.56,-103.79 2625.06,-113.79 2628.56,-103.79 2621.56,-103.79"/>
</g>
<!-- ProfilRoutingModule -->
<g id="node25" class="node">
<title>ProfilRoutingModule</title>
<polygon fill="#8dd3c7" stroke="black" points="2587.06,-84.8 2584.06,-88.8 2563.06,-88.8 2560.06,-84.8 2450.94,-84.8 2450.94,-48.8 2587.06,-48.8 2587.06,-84.8"/>
<text text-anchor="middle" x="2519" y="-62.6" font-family="Times,serif" font-size="14.00">ProfilRoutingModule</text>
</g>
<!-- ProfilRoutingModule&#45;&gt;ProfilModule -->
<g id="edge18" class="edge">
<title>ProfilRoutingModule&#45;&gt;ProfilModule</title>
<path fill="none" stroke="black" d="M2567.28,-84.91C2567.28,-84.91 2567.28,-103.79 2567.28,-103.79"/>
<polygon fill="black" stroke="black" points="2563.78,-103.79 2567.28,-113.79 2570.78,-103.79 2563.78,-103.79"/>
</g>
<!-- HomeComponent -->
<g id="node26" class="node">
<title>HomeComponent</title>
<polygon fill="#ffffb3" stroke="black" points="3322.55,-84.8 3207.45,-84.8 3207.45,-48.8 3322.55,-48.8 3322.55,-84.8"/>
<text text-anchor="middle" x="3265" y="-62.6" font-family="Times,serif" font-size="14.00">HomeComponent</text>
</g>
<!-- PublicModule -->
<g id="node29" class="node">
<title>PublicModule</title>
<polygon fill="#8dd3c7" stroke="black" points="3109.83,-149.8 3106.83,-153.8 3085.83,-153.8 3082.83,-149.8 3014.17,-149.8 3014.17,-113.8 3109.83,-113.8 3109.83,-149.8"/>
<text text-anchor="middle" x="3062" y="-127.6" font-family="Times,serif" font-size="14.00">PublicModule</text>
</g>
<!-- HomeComponent&#45;&gt;PublicModule -->
<g id="edge19" class="edge">
<title>HomeComponent&#45;&gt;PublicModule</title>
<path fill="none" stroke="black" d="M3265,-84.91C3265,-104.14 3265,-131.8 3265,-131.8 3265,-131.8 3119.85,-131.8 3119.85,-131.8"/>
<polygon fill="black" stroke="black" points="3119.85,-128.3 3109.85,-131.8 3119.85,-135.3 3119.85,-128.3"/>
</g>
<!-- LoginComponent -->
<g id="node27" class="node">
<title>LoginComponent</title>
<polygon fill="#ffffb3" stroke="black" points="3189.27,-84.8 3074.73,-84.8 3074.73,-48.8 3189.27,-48.8 3189.27,-84.8"/>
<text text-anchor="middle" x="3132" y="-62.6" font-family="Times,serif" font-size="14.00">LoginComponent</text>
</g>
<!-- LoginComponent&#45;&gt;PublicModule -->
<g id="edge20" class="edge">
<title>LoginComponent&#45;&gt;PublicModule</title>
<path fill="none" stroke="black" d="M3092.14,-84.91C3092.14,-84.91 3092.14,-103.79 3092.14,-103.79"/>
<polygon fill="black" stroke="black" points="3088.64,-103.79 3092.14,-113.79 3095.64,-103.79 3088.64,-103.79"/>
</g>
<!-- RegisterComponent -->
<g id="node28" class="node">
<title>RegisterComponent</title>
<polygon fill="#ffffb3" stroke="black" points="3056.99,-84.8 2929.01,-84.8 2929.01,-48.8 3056.99,-48.8 3056.99,-84.8"/>
<text text-anchor="middle" x="2993" y="-62.6" font-family="Times,serif" font-size="14.00">RegisterComponent</text>
</g>
<!-- RegisterComponent&#45;&gt;PublicModule -->
<g id="edge21" class="edge">
<title>RegisterComponent&#45;&gt;PublicModule</title>
<path fill="none" stroke="black" d="M3035.66,-84.91C3035.66,-84.91 3035.66,-103.79 3035.66,-103.79"/>
<polygon fill="black" stroke="black" points="3032.16,-103.79 3035.66,-113.79 3039.16,-103.79 3032.16,-103.79"/>
</g>
<!-- PublicRoutingModule -->
<g id="node30" class="node">
<title>PublicRoutingModule</title>
<polygon fill="#8dd3c7" stroke="black" points="2905.45,-84.8 2902.45,-88.8 2881.45,-88.8 2878.45,-84.8 2764.55,-84.8 2764.55,-48.8 2905.45,-48.8 2905.45,-84.8"/>
<text text-anchor="middle" x="2835" y="-62.6" font-family="Times,serif" font-size="14.00">PublicRoutingModule</text>
</g>
<!-- PublicRoutingModule&#45;&gt;PublicModule -->
<g id="edge22" class="edge">
<title>PublicRoutingModule&#45;&gt;PublicModule</title>
<path fill="none" stroke="black" d="M2835,-84.91C2835,-104.14 2835,-131.8 2835,-131.8 2835,-131.8 3004.14,-131.8 3004.14,-131.8"/>
<polygon fill="black" stroke="black" points="3004.14,-135.3 3014.14,-131.8 3004.14,-128.3 3004.14,-135.3"/>
</g>
<!-- WateringComponent -->
<g id="node31" class="node">
<title>WateringComponent</title>
<polygon fill="#ffffb3" stroke="black" points="3676.91,-84.8 3543.09,-84.8 3543.09,-48.8 3676.91,-48.8 3676.91,-84.8"/>
<text text-anchor="middle" x="3610" y="-62.6" font-family="Times,serif" font-size="14.00">WateringComponent</text>
</g>
<!-- WateringModule -->
<g id="node32" class="node">
<title>WateringModule</title>
<polygon fill="#8dd3c7" stroke="black" points="3580.64,-149.8 3577.64,-153.8 3556.64,-153.8 3553.64,-149.8 3469.36,-149.8 3469.36,-113.8 3580.64,-113.8 3580.64,-149.8"/>
<text text-anchor="middle" x="3525" y="-127.6" font-family="Times,serif" font-size="14.00">WateringModule</text>
</g>
<!-- WateringComponent&#45;&gt;WateringModule -->
<g id="edge23" class="edge">
<title>WateringComponent&#45;&gt;WateringModule</title>
<path fill="none" stroke="black" d="M3562.06,-84.91C3562.06,-84.91 3562.06,-103.79 3562.06,-103.79"/>
<polygon fill="black" stroke="black" points="3558.56,-103.79 3562.06,-113.79 3565.56,-103.79 3558.56,-103.79"/>
</g>
<!-- WateringRoutingModule -->
<g id="node33" class="node">
<title>WateringRoutingModule</title>
<polygon fill="#8dd3c7" stroke="black" points="3519.25,-84.8 3516.25,-88.8 3495.25,-88.8 3492.25,-84.8 3362.75,-84.8 3362.75,-48.8 3519.25,-48.8 3519.25,-84.8"/>
<text text-anchor="middle" x="3441" y="-62.6" font-family="Times,serif" font-size="14.00">WateringRoutingModule</text>
</g>
<!-- WateringRoutingModule&#45;&gt;WateringModule -->
<g id="edge24" class="edge">
<title>WateringRoutingModule&#45;&gt;WateringModule</title>
<path fill="none" stroke="black" d="M3494.28,-84.91C3494.28,-84.91 3494.28,-103.79 3494.28,-103.79"/>
<polygon fill="black" stroke="black" points="3490.78,-103.79 3494.28,-113.79 3497.78,-103.79 3490.78,-103.79"/>
</g>
</g>
</svg>
