<?xml version="1.0" encoding="UTF-8" standalone="no"?>
<!DOCTYPE svg PUBLIC "-//W3C//DTD SVG 1.1//EN"
 "http://www.w3.org/Graphics/SVG/1.1/DTD/svg11.dtd">
<!-- Generated by graphviz version 5.0.0 (20220707.1540)
 -->
<!-- Title: dependencies Pages: 1 -->
<svg width="1906pt" height="247pt"
 viewBox="0.00 0.00 1906.00 246.80" xmlns="http://www.w3.org/2000/svg" xmlns:xlink="http://www.w3.org/1999/xlink">
<g id="graph0" class="graph" transform="scale(1 1) rotate(0) translate(4 242.8)">
<title>dependencies</title>
<polygon fill="white" stroke="transparent" points="-4,4 -4,-242.8 1902,-242.8 1902,4 -4,4"/>
<text text-anchor="middle" x="949" y="-8.2" font-family="sans-serif" font-size="14.00">dependencies</text>
<g id="clust1" class="cluster">
<title>cluster_DirectivesModule</title>
<polygon fill="none" stroke="black" stroke-dasharray="1,5" points="8,-32.8 8,-230.8 1890,-230.8 1890,-32.8 8,-32.8"/>
</g>
<g id="clust14" class="cluster">
<title>cluster_DirectivesModule_exports</title>
<polygon fill="none" stroke="black" points="16,-170.8 16,-222.8 1882,-222.8 1882,-170.8 16,-170.8"/>
</g>
<g id="clust2" class="cluster">
<title>cluster_DirectivesModule_declarations</title>
<polygon fill="none" stroke="black" points="38,-40.8 38,-92.8 1867,-92.8 1867,-40.8 38,-40.8"/>
</g>
<!-- CancelSearchInputResetDirective -->
<g id="node1" class="node">
<title>CancelSearchInputResetDirective</title>
<polygon fill="#ffffb3" stroke="black" points="1858.7,-84.8 1653.3,-84.8 1653.3,-48.8 1858.7,-48.8 1858.7,-84.8"/>
<text text-anchor="middle" x="1756" y="-62.6" font-family="Times,serif" font-size="14.00">CancelSearchInputResetDirective</text>
</g>
<!-- DirectivesModule -->
<g id="node11" class="node">
<title>DirectivesModule</title>
<polygon fill="#8dd3c7" stroke="black" points="975.58,-149.8 972.58,-153.8 951.58,-153.8 948.58,-149.8 858.42,-149.8 858.42,-113.8 975.58,-113.8 975.58,-149.8"/>
<text text-anchor="middle" x="917" y="-127.6" font-family="Times,serif" font-size="14.00">DirectivesModule</text>
</g>
<!-- CancelSearchInputResetDirective&#45;&gt;DirectivesModule -->
<g id="edge1" class="edge">
<title>CancelSearchInputResetDirective&#45;&gt;DirectivesModule</title>
<path fill="none" stroke="black" d="M1658.78,-84.97C1658.78,-103.89 1658.78,-130.8 1658.78,-130.8 1658.78,-130.8 985.83,-130.8 985.83,-130.8"/>
<polygon fill="black" stroke="black" points="985.83,-127.3 975.83,-130.8 985.83,-134.3 985.83,-127.3"/>
</g>
<!-- InputFocusDirective -->
<g id="node2" class="node">
<title>InputFocusDirective</title>
<polygon fill="#ffffb3" stroke="black" points="1635.58,-84.8 1504.42,-84.8 1504.42,-48.8 1635.58,-48.8 1635.58,-84.8"/>
<text text-anchor="middle" x="1570" y="-62.6" font-family="Times,serif" font-size="14.00">InputFocusDirective</text>
</g>
<!-- InputFocusDirective&#45;&gt;DirectivesModule -->
<g id="edge2" class="edge">
<title>InputFocusDirective&#45;&gt;DirectivesModule</title>
<path fill="none" stroke="black" d="M1508.08,-85.1C1508.08,-103.07 1508.08,-127.8 1508.08,-127.8 1508.08,-127.8 985.56,-127.8 985.56,-127.8"/>
<polygon fill="black" stroke="black" points="985.56,-124.3 975.56,-127.8 985.56,-131.3 985.56,-124.3"/>
</g>
<!-- InputTitleCaseDirective -->
<g id="node3" class="node">
<title>InputTitleCaseDirective</title>
<polygon fill="#ffffb3" stroke="black" points="1486.78,-84.8 1335.22,-84.8 1335.22,-48.8 1486.78,-48.8 1486.78,-84.8"/>
<text text-anchor="middle" x="1411" y="-62.6" font-family="Times,serif" font-size="14.00">InputTitleCaseDirective</text>
</g>
<!-- InputTitleCaseDirective&#45;&gt;DirectivesModule -->
<g id="edge3" class="edge">
<title>InputTitleCaseDirective&#45;&gt;DirectivesModule</title>
<path fill="none" stroke="black" d="M1437.3,-84.84C1437.3,-101.53 1437.3,-123.8 1437.3,-123.8 1437.3,-123.8 985.67,-123.8 985.67,-123.8"/>
<polygon fill="black" stroke="black" points="985.67,-120.3 975.67,-123.8 985.67,-127.3 985.67,-120.3"/>
</g>
<!-- InputTrimDirective -->
<g id="node4" class="node">
<title>InputTrimDirective</title>
<polygon fill="#ffffb3" stroke="black" points="1317.63,-84.8 1192.37,-84.8 1192.37,-48.8 1317.63,-48.8 1317.63,-84.8"/>
<text text-anchor="middle" x="1255" y="-62.6" font-family="Times,serif" font-size="14.00">InputTrimDirective</text>
</g>
<!-- InputTrimDirective&#45;&gt;DirectivesModule -->
<g id="edge4" class="edge">
<title>InputTrimDirective&#45;&gt;DirectivesModule</title>
<path fill="none" stroke="black" d="M1275.94,-85.08C1275.94,-100.75 1275.94,-120.8 1275.94,-120.8 1275.94,-120.8 985.87,-120.8 985.87,-120.8"/>
<polygon fill="black" stroke="black" points="985.87,-117.3 975.87,-120.8 985.87,-124.3 985.87,-117.3"/>
</g>
<!-- InputUpperCaseDirective -->
<g id="node5" class="node">
<title>InputUpperCaseDirective</title>
<polygon fill="#ffffb3" stroke="black" points="1173.84,-84.8 1014.16,-84.8 1014.16,-48.8 1173.84,-48.8 1173.84,-84.8"/>
<text text-anchor="middle" x="1094" y="-62.6" font-family="Times,serif" font-size="14.00">InputUpperCaseDirective</text>
</g>
<!-- InputUpperCaseDirective&#45;&gt;DirectivesModule -->
<g id="edge5" class="edge">
<title>InputUpperCaseDirective&#45;&gt;DirectivesModule</title>
<path fill="none" stroke="black" d="M1067.28,-84.92C1067.28,-99.58 1067.28,-117.8 1067.28,-117.8 1067.28,-117.8 985.96,-117.8 985.96,-117.8"/>
<polygon fill="black" stroke="black" points="985.96,-114.3 975.96,-117.8 985.96,-121.3 985.96,-114.3"/>
</g>
<!-- RemoveNgPristineDirective -->
<g id="node6" class="node">
<title>RemoveNgPristineDirective</title>
<polygon fill="#ffffb3" stroke="black" points="996.13,-84.8 821.87,-84.8 821.87,-48.8 996.13,-48.8 996.13,-84.8"/>
<text text-anchor="middle" x="909" y="-62.6" font-family="Times,serif" font-size="14.00">RemoveNgPristineDirective</text>
</g>
<!-- RemoveNgPristineDirective&#45;&gt;DirectivesModule -->
<g id="edge6" class="edge">
<title>RemoveNgPristineDirective&#45;&gt;DirectivesModule</title>
<path fill="none" stroke="black" d="M917,-84.91C917,-84.91 917,-103.79 917,-103.79"/>
<polygon fill="black" stroke="black" points="913.5,-103.79 917,-113.79 920.5,-103.79 913.5,-103.79"/>
</g>
<!-- RemoveNgTouchedDirective -->
<g id="node7" class="node">
<title>RemoveNgTouchedDirective</title>
<polygon fill="#ffffb3" stroke="black" points="803.33,-84.8 622.67,-84.8 622.67,-48.8 803.33,-48.8 803.33,-84.8"/>
<text text-anchor="middle" x="713" y="-62.6" font-family="Times,serif" font-size="14.00">RemoveNgTouchedDirective</text>
</g>
<!-- RemoveNgTouchedDirective&#45;&gt;DirectivesModule -->
<g id="edge7" class="edge">
<title>RemoveNgTouchedDirective&#45;&gt;DirectivesModule</title>
<path fill="none" stroke="black" d="M799.79,-84.92C799.79,-99.58 799.79,-117.8 799.79,-117.8 799.79,-117.8 848.39,-117.8 848.39,-117.8"/>
<polygon fill="black" stroke="black" points="848.39,-121.3 858.39,-117.8 848.39,-114.3 848.39,-121.3"/>
</g>
<!-- RemoveNgUntouchedDirective -->
<g id="node8" class="node">
<title>RemoveNgUntouchedDirective</title>
<polygon fill="#ffffb3" stroke="black" points="604.78,-84.8 411.22,-84.8 411.22,-48.8 604.78,-48.8 604.78,-84.8"/>
<text text-anchor="middle" x="508" y="-62.6" font-family="Times,serif" font-size="14.00">RemoveNgUntouchedDirective</text>
</g>
<!-- RemoveNgUntouchedDirective&#45;&gt;DirectivesModule -->
<g id="edge8" class="edge">
<title>RemoveNgUntouchedDirective&#45;&gt;DirectivesModule</title>
<path fill="none" stroke="black" d="M599.01,-84.81C599.01,-100.85 599.01,-121.8 599.01,-121.8 599.01,-121.8 848.31,-121.8 848.31,-121.8"/>
<polygon fill="black" stroke="black" points="848.31,-125.3 858.31,-121.8 848.31,-118.3 848.31,-125.3"/>
</g>
<!-- RemoveNgValidDirective -->
<g id="node9" class="node">
<title>RemoveNgValidDirective</title>
<polygon fill="#ffffb3" stroke="black" points="393.45,-84.8 230.55,-84.8 230.55,-48.8 393.45,-48.8 393.45,-84.8"/>
<text text-anchor="middle" x="312" y="-62.6" font-family="Times,serif" font-size="14.00">RemoveNgValidDirective</text>
</g>
<!-- RemoveNgValidDirective&#45;&gt;DirectivesModule -->
<g id="edge9" class="edge">
<title>RemoveNgValidDirective&#45;&gt;DirectivesModule</title>
<path fill="none" stroke="black" d="M385.85,-84.82C385.85,-102.17 385.85,-125.8 385.85,-125.8 385.85,-125.8 848.38,-125.8 848.38,-125.8"/>
<polygon fill="black" stroke="black" points="848.38,-129.3 858.38,-125.8 848.38,-122.3 848.38,-129.3"/>
</g>
<!-- SearchInputResetDirective -->
<g id="node10" class="node">
<title>SearchInputResetDirective</title>
<polygon fill="#ffffb3" stroke="black" points="212.33,-84.8 45.67,-84.8 45.67,-48.8 212.33,-48.8 212.33,-84.8"/>
<text text-anchor="middle" x="129" y="-62.6" font-family="Times,serif" font-size="14.00">SearchInputResetDirective</text>
</g>
<!-- SearchInputResetDirective&#45;&gt;DirectivesModule -->
<g id="edge10" class="edge">
<title>SearchInputResetDirective&#45;&gt;DirectivesModule</title>
<path fill="none" stroke="black" d="M202.97,-85.02C202.97,-103.63 202.97,-129.8 202.97,-129.8 202.97,-129.8 848.26,-129.8 848.26,-129.8"/>
<polygon fill="black" stroke="black" points="848.26,-133.3 858.26,-129.8 848.26,-126.3 848.26,-133.3"/>
</g>
<!-- CancelSearchInputResetDirective  -->
<g id="node12" class="node">
<title>CancelSearchInputResetDirective </title>
<polygon fill="#fb8072" stroke="black" points="1873.7,-214.8 1664.3,-214.8 1664.3,-178.8 1873.7,-178.8 1873.7,-214.8"/>
<text text-anchor="middle" x="1769" y="-192.6" font-family="Times,serif" font-size="14.00">CancelSearchInputResetDirective </text>
</g>
<!-- DirectivesModule&#45;&gt;CancelSearchInputResetDirective  -->
<g id="edge11" class="edge">
<title>DirectivesModule&#45;&gt;CancelSearchInputResetDirective </title>
<path fill="none" stroke="black" stroke-dasharray="5,2" d="M975.72,-133.8C1167.26,-133.8 1761.62,-133.8 1761.62,-133.8 1761.62,-133.8 1761.62,-168.58 1761.62,-168.58"/>
<polygon fill="black" stroke="black" points="1758.13,-168.58 1761.62,-178.58 1765.13,-168.58 1758.13,-168.58"/>
</g>
<!-- InputFocusDirective  -->
<g id="node13" class="node">
<title>InputFocusDirective </title>
<polygon fill="#fb8072" stroke="black" points="1646.08,-214.8 1511.92,-214.8 1511.92,-178.8 1646.08,-178.8 1646.08,-214.8"/>
<text text-anchor="middle" x="1579" y="-192.6" font-family="Times,serif" font-size="14.00">InputFocusDirective </text>
</g>
<!-- DirectivesModule&#45;&gt;InputFocusDirective  -->
<g id="edge12" class="edge">
<title>DirectivesModule&#45;&gt;InputFocusDirective </title>
<path fill="none" stroke="black" stroke-dasharray="5,2" d="M975.56,-136.8C1136.5,-136.8 1573.62,-136.8 1573.62,-136.8 1573.62,-136.8 1573.62,-168.8 1573.62,-168.8"/>
<polygon fill="black" stroke="black" points="1570.13,-168.8 1573.62,-178.8 1577.13,-168.8 1570.13,-168.8"/>
</g>
<!-- InputTitleCaseDirective  -->
<g id="node14" class="node">
<title>InputTitleCaseDirective </title>
<polygon fill="#fb8072" stroke="black" points="1493.28,-214.8 1338.72,-214.8 1338.72,-178.8 1493.28,-178.8 1493.28,-214.8"/>
<text text-anchor="middle" x="1416" y="-192.6" font-family="Times,serif" font-size="14.00">InputTitleCaseDirective </text>
</g>
<!-- DirectivesModule&#45;&gt;InputTitleCaseDirective  -->
<g id="edge13" class="edge">
<title>DirectivesModule&#45;&gt;InputTitleCaseDirective </title>
<path fill="none" stroke="black" stroke-dasharray="5,2" d="M975.69,-140.8C1101.94,-140.8 1387.95,-140.8 1387.95,-140.8 1387.95,-140.8 1387.95,-168.77 1387.95,-168.77"/>
<polygon fill="black" stroke="black" points="1384.45,-168.77 1387.95,-178.77 1391.45,-168.77 1384.45,-168.77"/>
</g>
<!-- InputTrimDirective  -->
<g id="node15" class="node">
<title>InputTrimDirective </title>
<polygon fill="#fb8072" stroke="black" points="1320.63,-214.8 1191.37,-214.8 1191.37,-178.8 1320.63,-178.8 1320.63,-214.8"/>
<text text-anchor="middle" x="1256" y="-192.6" font-family="Times,serif" font-size="14.00">InputTrimDirective </text>
</g>
<!-- DirectivesModule&#45;&gt;InputTrimDirective  -->
<g id="edge14" class="edge">
<title>DirectivesModule&#45;&gt;InputTrimDirective </title>
<path fill="none" stroke="black" stroke-dasharray="5,2" d="M975.89,-143.8C1067.59,-143.8 1234.06,-143.8 1234.06,-143.8 1234.06,-143.8 1234.06,-168.56 1234.06,-168.56"/>
<polygon fill="black" stroke="black" points="1230.56,-168.56 1234.06,-178.56 1237.56,-168.56 1230.56,-168.56"/>
</g>
<!-- InputUpperCaseDirective  -->
<g id="node16" class="node">
<title>InputUpperCaseDirective </title>
<polygon fill="#fb8072" stroke="black" points="1173.84,-214.8 1010.16,-214.8 1010.16,-178.8 1173.84,-178.8 1173.84,-214.8"/>
<text text-anchor="middle" x="1092" y="-192.6" font-family="Times,serif" font-size="14.00">InputUpperCaseDirective </text>
</g>
<!-- DirectivesModule&#45;&gt;InputUpperCaseDirective  -->
<g id="edge15" class="edge">
<title>DirectivesModule&#45;&gt;InputUpperCaseDirective </title>
<path fill="none" stroke="black" stroke-dasharray="5,2" d="M975.58,-146.8C1035.69,-146.8 1120.47,-146.8 1120.47,-146.8 1120.47,-146.8 1120.47,-168.75 1120.47,-168.75"/>
<polygon fill="black" stroke="black" points="1116.97,-168.75 1120.47,-178.75 1123.97,-168.75 1116.97,-168.75"/>
</g>
<!-- RemoveNgPristineDirective  -->
<g id="node17" class="node">
<title>RemoveNgPristineDirective </title>
<polygon fill="#fb8072" stroke="black" points="992.13,-214.8 813.87,-214.8 813.87,-178.8 992.13,-178.8 992.13,-214.8"/>
<text text-anchor="middle" x="903" y="-192.6" font-family="Times,serif" font-size="14.00">RemoveNgPristineDirective </text>
</g>
<!-- DirectivesModule&#45;&gt;RemoveNgPristineDirective  -->
<g id="edge16" class="edge">
<title>DirectivesModule&#45;&gt;RemoveNgPristineDirective </title>
<path fill="none" stroke="black" stroke-dasharray="5,2" d="M917,-149.91C917,-149.91 917,-168.79 917,-168.79"/>
<polygon fill="black" stroke="black" points="913.5,-168.79 917,-178.79 920.5,-168.79 913.5,-168.79"/>
</g>
<!-- RemoveNgTouchedDirective  -->
<g id="node18" class="node">
<title>RemoveNgTouchedDirective </title>
<polygon fill="#fb8072" stroke="black" points="796.33,-214.8 611.67,-214.8 611.67,-178.8 796.33,-178.8 796.33,-214.8"/>
<text text-anchor="middle" x="704" y="-192.6" font-family="Times,serif" font-size="14.00">RemoveNgTouchedDirective </text>
</g>
<!-- DirectivesModule&#45;&gt;RemoveNgTouchedDirective  -->
<g id="edge17" class="edge">
<title>DirectivesModule&#45;&gt;RemoveNgTouchedDirective </title>
<path fill="none" stroke="black" stroke-dasharray="5,2" d="M858.34,-145.8C796.94,-145.8 709.38,-145.8 709.38,-145.8 709.38,-145.8 709.38,-168.68 709.38,-168.68"/>
<polygon fill="black" stroke="black" points="705.88,-168.68 709.38,-178.68 712.88,-168.68 705.88,-168.68"/>
</g>
<!-- RemoveNgUntouchedDirective  -->
<g id="node19" class="node">
<title>RemoveNgUntouchedDirective </title>
<polygon fill="#fb8072" stroke="black" points="593.28,-214.8 396.72,-214.8 396.72,-178.8 593.28,-178.8 593.28,-214.8"/>
<text text-anchor="middle" x="495" y="-192.6" font-family="Times,serif" font-size="14.00">RemoveNgUntouchedDirective </text>
</g>
<!-- DirectivesModule&#45;&gt;RemoveNgUntouchedDirective  -->
<g id="edge18" class="edge">
<title>DirectivesModule&#45;&gt;RemoveNgUntouchedDirective </title>
<path fill="none" stroke="black" stroke-dasharray="5,2" d="M858.03,-141.8C743.56,-141.8 502.38,-141.8 502.38,-141.8 502.38,-141.8 502.38,-168.79 502.38,-168.79"/>
<polygon fill="black" stroke="black" points="498.88,-168.79 502.38,-178.79 505.88,-168.79 498.88,-168.79"/>
</g>
<!-- RemoveNgValidDirective  -->
<g id="node20" class="node">
<title>RemoveNgValidDirective </title>
<polygon fill="#fb8072" stroke="black" points="378.45,-214.8 211.55,-214.8 211.55,-178.8 378.45,-178.8 378.45,-214.8"/>
<text text-anchor="middle" x="295" y="-192.6" font-family="Times,serif" font-size="14.00">RemoveNgValidDirective </text>
</g>
<!-- DirectivesModule&#45;&gt;RemoveNgValidDirective  -->
<g id="edge19" class="edge">
<title>DirectivesModule&#45;&gt;RemoveNgValidDirective </title>
<path fill="none" stroke="black" stroke-dasharray="5,2" d="M858.26,-137.8C704.92,-137.8 304.38,-137.8 304.38,-137.8 304.38,-137.8 304.38,-168.78 304.38,-168.78"/>
<polygon fill="black" stroke="black" points="300.88,-168.78 304.38,-178.78 307.88,-168.78 300.88,-168.78"/>
</g>
<!-- SearchInputResetDirective  -->
<g id="node21" class="node">
<title>SearchInputResetDirective </title>
<polygon fill="#fb8072" stroke="black" points="194.33,-214.8 23.67,-214.8 23.67,-178.8 194.33,-178.8 194.33,-214.8"/>
<text text-anchor="middle" x="109" y="-192.6" font-family="Times,serif" font-size="14.00">SearchInputResetDirective </text>
</g>
<!-- DirectivesModule&#45;&gt;SearchInputResetDirective  -->
<g id="edge20" class="edge">
<title>DirectivesModule&#45;&gt;SearchInputResetDirective </title>
<path fill="none" stroke="black" stroke-dasharray="5,2" d="M858.39,-133.8C674.3,-133.8 119.88,-133.8 119.88,-133.8 119.88,-133.8 119.88,-168.58 119.88,-168.58"/>
<polygon fill="black" stroke="black" points="116.38,-168.58 119.88,-178.58 123.38,-168.58 116.38,-168.58"/>
</g>
</g>
</svg>
