<?xml version="1.0" encoding="UTF-8" standalone="no"?>
<!DOCTYPE svg PUBLIC "-//W3C//DTD SVG 1.1//EN"
 "http://www.w3.org/Graphics/SVG/1.1/DTD/svg11.dtd">
<!-- Generated by graphviz version 5.0.0 (20220707.1540)
 -->
<!-- Title: dependencies Pages: 1 -->
<svg width="957pt" height="174pt"
 viewBox="0.00 0.00 957.00 173.80" xmlns="http://www.w3.org/2000/svg" xmlns:xlink="http://www.w3.org/1999/xlink">
<g id="graph0" class="graph" transform="scale(1 1) rotate(0) translate(4 169.8)">
<title>dependencies</title>
<polygon fill="white" stroke="transparent" points="-4,4 -4,-169.8 953,-169.8 953,4 -4,4"/>
<text text-anchor="middle" x="474.5" y="-8.2" font-family="sans-serif" font-size="14.00">dependencies</text>
<g id="clust1" class="cluster">
<title>cluster_PublicModule</title>
<polygon fill="none" stroke="black" stroke-dasharray="1,5" points="8,-32.8 8,-157.8 941,-157.8 941,-32.8 8,-32.8"/>
</g>
<g id="clust7" class="cluster">
<title>cluster_PublicModule_imports</title>
<polygon fill="none" stroke="black" points="641,-40.8 641,-92.8 933,-92.8 933,-40.8 641,-40.8"/>
</g>
<g id="clust2" class="cluster">
<title>cluster_PublicModule_declarations</title>
<polygon fill="none" stroke="black" points="16,-40.8 16,-92.8 633,-92.8 633,-40.8 16,-40.8"/>
</g>
<!-- ForgottenPasswordComponent -->
<g id="node1" class="node">
<title>ForgottenPasswordComponent</title>
<polygon fill="#ffffb3" stroke="black" points="624.94,-84.8 435.06,-84.8 435.06,-48.8 624.94,-48.8 624.94,-84.8"/>
<text text-anchor="middle" x="530" y="-62.6" font-family="Times,serif" font-size="14.00">ForgottenPasswordComponent</text>
</g>
<!-- PublicModule -->
<g id="node5" class="node">
<title>PublicModule</title>
<polygon fill="#8dd3c7" stroke="black" points="492.83,-149.8 489.83,-153.8 468.83,-153.8 465.83,-149.8 397.17,-149.8 397.17,-113.8 492.83,-113.8 492.83,-149.8"/>
<text text-anchor="middle" x="445" y="-127.6" font-family="Times,serif" font-size="14.00">PublicModule</text>
</g>
<!-- ForgottenPasswordComponent&#45;&gt;PublicModule -->
<g id="edge1" class="edge">
<title>ForgottenPasswordComponent&#45;&gt;PublicModule</title>
<path fill="none" stroke="black" d="M463.97,-84.91C463.97,-84.91 463.97,-103.79 463.97,-103.79"/>
<polygon fill="black" stroke="black" points="460.47,-103.79 463.97,-113.79 467.47,-103.79 460.47,-103.79"/>
</g>
<!-- HomeComponent -->
<g id="node2" class="node">
<title>HomeComponent</title>
<polygon fill="#ffffb3" stroke="black" points="417.55,-84.8 302.45,-84.8 302.45,-48.8 417.55,-48.8 417.55,-84.8"/>
<text text-anchor="middle" x="360" y="-62.6" font-family="Times,serif" font-size="14.00">HomeComponent</text>
</g>
<!-- HomeComponent&#45;&gt;PublicModule -->
<g id="edge2" class="edge">
<title>HomeComponent&#45;&gt;PublicModule</title>
<path fill="none" stroke="black" d="M407.55,-84.91C407.55,-84.91 407.55,-103.79 407.55,-103.79"/>
<polygon fill="black" stroke="black" points="404.05,-103.79 407.55,-113.79 411.05,-103.79 404.05,-103.79"/>
</g>
<!-- LoginComponent -->
<g id="node3" class="node">
<title>LoginComponent</title>
<polygon fill="#ffffb3" stroke="black" points="284.27,-84.8 169.73,-84.8 169.73,-48.8 284.27,-48.8 284.27,-84.8"/>
<text text-anchor="middle" x="227" y="-62.6" font-family="Times,serif" font-size="14.00">LoginComponent</text>
</g>
<!-- LoginComponent&#45;&gt;PublicModule -->
<g id="edge3" class="edge">
<title>LoginComponent&#45;&gt;PublicModule</title>
<path fill="none" stroke="black" d="M227,-84.82C227,-102.17 227,-125.8 227,-125.8 227,-125.8 387.16,-125.8 387.16,-125.8"/>
<polygon fill="black" stroke="black" points="387.16,-129.3 397.16,-125.8 387.16,-122.3 387.16,-129.3"/>
</g>
<!-- RegisterComponent -->
<g id="node4" class="node">
<title>RegisterComponent</title>
<polygon fill="#ffffb3" stroke="black" points="151.99,-84.8 24.01,-84.8 24.01,-48.8 151.99,-48.8 151.99,-84.8"/>
<text text-anchor="middle" x="88" y="-62.6" font-family="Times,serif" font-size="14.00">RegisterComponent</text>
</g>
<!-- RegisterComponent&#45;&gt;PublicModule -->
<g id="edge4" class="edge">
<title>RegisterComponent&#45;&gt;PublicModule</title>
<path fill="none" stroke="black" d="M88,-85.08C88,-106.12 88,-137.8 88,-137.8 88,-137.8 387.22,-137.8 387.22,-137.8"/>
<polygon fill="black" stroke="black" points="387.22,-141.3 397.22,-137.8 387.22,-134.3 387.22,-141.3"/>
</g>
<!-- DirectivesModule -->
<g id="node6" class="node">
<title>DirectivesModule</title>
<polygon fill="#8dd3c7" stroke="black" points="924.58,-84.8 921.58,-88.8 900.58,-88.8 897.58,-84.8 807.42,-84.8 807.42,-48.8 924.58,-48.8 924.58,-84.8"/>
<text text-anchor="middle" x="866" y="-62.6" font-family="Times,serif" font-size="14.00">DirectivesModule</text>
</g>
<!-- DirectivesModule&#45;&gt;PublicModule -->
<g id="edge5" class="edge">
<title>DirectivesModule&#45;&gt;PublicModule</title>
<path fill="none" stroke="black" d="M866,-85.08C866,-106.12 866,-137.8 866,-137.8 866,-137.8 502.88,-137.8 502.88,-137.8"/>
<polygon fill="black" stroke="black" points="502.88,-134.3 492.88,-137.8 502.88,-141.3 502.88,-134.3"/>
</g>
<!-- PublicRoutingModule -->
<g id="node7" class="node">
<title>PublicRoutingModule</title>
<polygon fill="#8dd3c7" stroke="black" points="789.45,-84.8 786.45,-88.8 765.45,-88.8 762.45,-84.8 648.55,-84.8 648.55,-48.8 789.45,-48.8 789.45,-84.8"/>
<text text-anchor="middle" x="719" y="-62.6" font-family="Times,serif" font-size="14.00">PublicRoutingModule</text>
</g>
<!-- PublicRoutingModule&#45;&gt;PublicModule -->
<g id="edge6" class="edge">
<title>PublicRoutingModule&#45;&gt;PublicModule</title>
<path fill="none" stroke="black" d="M719,-84.82C719,-102.17 719,-125.8 719,-125.8 719,-125.8 502.73,-125.8 502.73,-125.8"/>
<polygon fill="black" stroke="black" points="502.73,-122.3 492.73,-125.8 502.73,-129.3 502.73,-122.3"/>
</g>
</g>
</svg>
