<?xml version="1.0" encoding="UTF-8" standalone="no"?>
<!DOCTYPE svg PUBLIC "-//W3C//DTD SVG 1.1//EN"
 "http://www.w3.org/Graphics/SVG/1.1/DTD/svg11.dtd">
<!-- Generated by graphviz version 3.0.0 (20220226.1711)
 -->
<!-- Title: dependencies Pages: 1 -->
<svg width="614pt" height="174pt"
 viewBox="0.00 0.00 614.00 173.80" xmlns="http://www.w3.org/2000/svg" xmlns:xlink="http://www.w3.org/1999/xlink">
<g id="graph0" class="graph" transform="scale(1 1) rotate(0) translate(4 169.8)">
<title>dependencies</title>
<polygon fill="white" stroke="transparent" points="-4,4 -4,-169.8 610,-169.8 610,4 -4,4"/>
<text text-anchor="middle" x="303" y="-8.2" font-family="sans-serif" font-size="14.00">dependencies</text>
<g id="clust1" class="cluster">
<title>cluster_PublicModule</title>
<polygon fill="none" stroke="black" stroke-dasharray="1,5" points="8,-32.8 8,-157.8 598,-157.8 598,-32.8 8,-32.8"/>
</g>
<g id="clust6" class="cluster">
<title>cluster_PublicModule_imports</title>
<polygon fill="none" stroke="black" points="434,-40.8 434,-92.8 590,-92.8 590,-40.8 434,-40.8"/>
</g>
<g id="clust2" class="cluster">
<title>cluster_PublicModule_declarations</title>
<polygon fill="none" stroke="black" points="16,-40.8 16,-92.8 426,-92.8 426,-40.8 16,-40.8"/>
</g>
<!-- HomeComponent -->
<g id="node1" class="node">
<title>HomeComponent</title>
<polygon fill="#ffffb3" stroke="black" points="417.55,-84.8 302.45,-84.8 302.45,-48.8 417.55,-48.8 417.55,-84.8"/>
<text text-anchor="middle" x="360" y="-62.6" font-family="Times,serif" font-size="14.00">HomeComponent</text>
</g>
<!-- PublicModule -->
<g id="node4" class="node">
<title>PublicModule</title>
<polygon fill="#8dd3c7" stroke="black" points="340.83,-149.8 337.83,-153.8 316.83,-153.8 313.83,-149.8 245.17,-149.8 245.17,-113.8 340.83,-113.8 340.83,-149.8"/>
<text text-anchor="middle" x="293" y="-127.6" font-family="Times,serif" font-size="14.00">PublicModule</text>
</g>
<!-- HomeComponent&#45;&gt;PublicModule -->
<g id="edge1" class="edge">
<title>HomeComponent&#45;&gt;PublicModule</title>
<path fill="none" stroke="black" d="M321.45,-84.91C321.45,-84.91 321.45,-103.79 321.45,-103.79"/>
<polygon fill="black" stroke="black" points="317.95,-103.79 321.45,-113.79 324.95,-103.79 317.95,-103.79"/>
</g>
<!-- LoginComponent -->
<g id="node2" class="node">
<title>LoginComponent</title>
<polygon fill="#ffffb3" stroke="black" points="284.27,-84.8 169.73,-84.8 169.73,-48.8 284.27,-48.8 284.27,-84.8"/>
<text text-anchor="middle" x="227" y="-62.6" font-family="Times,serif" font-size="14.00">LoginComponent</text>
</g>
<!-- LoginComponent&#45;&gt;PublicModule -->
<g id="edge2" class="edge">
<title>LoginComponent&#45;&gt;PublicModule</title>
<path fill="none" stroke="black" d="M264.86,-84.91C264.86,-84.91 264.86,-103.79 264.86,-103.79"/>
<polygon fill="black" stroke="black" points="261.36,-103.79 264.86,-113.79 268.36,-103.79 261.36,-103.79"/>
</g>
<!-- RegisterComponent -->
<g id="node3" class="node">
<title>RegisterComponent</title>
<polygon fill="#ffffb3" stroke="black" points="151.99,-84.8 24.01,-84.8 24.01,-48.8 151.99,-48.8 151.99,-84.8"/>
<text text-anchor="middle" x="88" y="-62.6" font-family="Times,serif" font-size="14.00">RegisterComponent</text>
</g>
<!-- RegisterComponent&#45;&gt;PublicModule -->
<g id="edge3" class="edge">
<title>RegisterComponent&#45;&gt;PublicModule</title>
<path fill="none" stroke="black" d="M88,-84.91C88,-104.14 88,-131.8 88,-131.8 88,-131.8 235.2,-131.8 235.2,-131.8"/>
<polygon fill="black" stroke="black" points="235.2,-135.3 245.2,-131.8 235.2,-128.3 235.2,-135.3"/>
</g>
<!-- PublicRoutingModule -->
<g id="node5" class="node">
<title>PublicRoutingModule</title>
<polygon fill="#8dd3c7" stroke="black" points="582.45,-84.8 579.45,-88.8 558.45,-88.8 555.45,-84.8 441.55,-84.8 441.55,-48.8 582.45,-48.8 582.45,-84.8"/>
<text text-anchor="middle" x="512" y="-62.6" font-family="Times,serif" font-size="14.00">PublicRoutingModule</text>
</g>
<!-- PublicRoutingModule&#45;&gt;PublicModule -->
<g id="edge4" class="edge">
<title>PublicRoutingModule&#45;&gt;PublicModule</title>
<path fill="none" stroke="black" d="M512,-84.91C512,-104.14 512,-131.8 512,-131.8 512,-131.8 350.79,-131.8 350.79,-131.8"/>
<polygon fill="black" stroke="black" points="350.79,-128.3 340.79,-131.8 350.79,-135.3 350.79,-128.3"/>
</g>
</g>
</svg>
