<?xml version="1.0" encoding="UTF-8" standalone="no"?>
<!DOCTYPE svg PUBLIC "-//W3C//DTD SVG 1.1//EN"
 "http://www.w3.org/Graphics/SVG/1.1/DTD/svg11.dtd">
<!-- Generated by graphviz version 5.0.0 (20220707.1540)
 -->
<!-- Title: dependencies Pages: 1 -->
<svg width="543pt" height="174pt"
 viewBox="0.00 0.00 543.00 173.80" xmlns="http://www.w3.org/2000/svg" xmlns:xlink="http://www.w3.org/1999/xlink">
<g id="graph0" class="graph" transform="scale(1 1) rotate(0) translate(4 169.8)">
<title>dependencies</title>
<polygon fill="white" stroke="transparent" points="-4,4 -4,-169.8 539,-169.8 539,4 -4,4"/>
<text text-anchor="middle" x="267.5" y="-8.2" font-family="sans-serif" font-size="14.00">dependencies</text>
<g id="clust1" class="cluster">
<title>cluster_LawnmowerModule</title>
<polygon fill="none" stroke="black" stroke-dasharray="1,5" points="8,-32.8 8,-157.8 527,-157.8 527,-32.8 8,-32.8"/>
</g>
<g id="clust2" class="cluster">
<title>cluster_LawnmowerModule_declarations</title>
<polygon fill="none" stroke="black" points="351,-40.8 351,-92.8 519,-92.8 519,-40.8 351,-40.8"/>
</g>
<g id="clust4" class="cluster">
<title>cluster_LawnmowerModule_imports</title>
<polygon fill="none" stroke="black" points="16,-40.8 16,-92.8 343,-92.8 343,-40.8 16,-40.8"/>
</g>
<!-- LawnmowerComponent -->
<g id="node1" class="node">
<title>LawnmowerComponent</title>
<polygon fill="#ffffb3" stroke="black" points="511.08,-84.8 358.92,-84.8 358.92,-48.8 511.08,-48.8 511.08,-84.8"/>
<text text-anchor="middle" x="435" y="-62.6" font-family="Times,serif" font-size="14.00">LawnmowerComponent</text>
</g>
<!-- LawnmowerModule -->
<g id="node2" class="node">
<title>LawnmowerModule</title>
<polygon fill="#8dd3c7" stroke="black" points="341.3,-149.8 338.3,-153.8 317.3,-153.8 314.3,-149.8 210.7,-149.8 210.7,-113.8 341.3,-113.8 341.3,-149.8"/>
<text text-anchor="middle" x="276" y="-127.6" font-family="Times,serif" font-size="14.00">LawnmowerModule</text>
</g>
<!-- LawnmowerComponent&#45;&gt;LawnmowerModule -->
<g id="edge1" class="edge">
<title>LawnmowerComponent&#45;&gt;LawnmowerModule</title>
<path fill="none" stroke="black" d="M435,-84.91C435,-104.14 435,-131.8 435,-131.8 435,-131.8 351.59,-131.8 351.59,-131.8"/>
<polygon fill="black" stroke="black" points="351.59,-128.3 341.59,-131.8 351.59,-135.3 351.59,-128.3"/>
</g>
<!-- DirectivesModule -->
<g id="node3" class="node">
<title>DirectivesModule</title>
<polygon fill="#8dd3c7" stroke="black" points="334.58,-84.8 331.58,-88.8 310.58,-88.8 307.58,-84.8 217.42,-84.8 217.42,-48.8 334.58,-48.8 334.58,-84.8"/>
<text text-anchor="middle" x="276" y="-62.6" font-family="Times,serif" font-size="14.00">DirectivesModule</text>
</g>
<!-- DirectivesModule&#45;&gt;LawnmowerModule -->
<g id="edge2" class="edge">
<title>DirectivesModule&#45;&gt;LawnmowerModule</title>
<path fill="none" stroke="black" d="M276,-84.91C276,-84.91 276,-103.79 276,-103.79"/>
<polygon fill="black" stroke="black" points="272.5,-103.79 276,-113.79 279.5,-103.79 272.5,-103.79"/>
</g>
<!-- LawnmowerRoutingModule -->
<g id="node4" class="node">
<title>LawnmowerRoutingModule</title>
<polygon fill="#8dd3c7" stroke="black" points="199.92,-84.8 196.92,-88.8 175.92,-88.8 172.92,-84.8 24.08,-84.8 24.08,-48.8 199.92,-48.8 199.92,-84.8"/>
<text text-anchor="middle" x="112" y="-62.6" font-family="Times,serif" font-size="14.00">LawnmowerRoutingModule</text>
</g>
<!-- LawnmowerRoutingModule&#45;&gt;LawnmowerModule -->
<g id="edge3" class="edge">
<title>LawnmowerRoutingModule&#45;&gt;LawnmowerModule</title>
<path fill="none" stroke="black" d="M112,-84.91C112,-104.14 112,-131.8 112,-131.8 112,-131.8 200.71,-131.8 200.71,-131.8"/>
<polygon fill="black" stroke="black" points="200.71,-135.3 210.71,-131.8 200.71,-128.3 200.71,-135.3"/>
</g>
</g>
</svg>
